<svg xmlns="http://www.w3.org/2000/svg" viewBox="0 0 300 250"><path d="M157.4 80.8c1.3-.4 12-3 18.8-2.6 9.5.5 20.5 3.9 26.4 12 7.5-9 18-17 30.6-16.2 12.9 1 25.8 6.5 33.7 16.9 7.5 9.8 7.9 20.8-.2 30.2-4.5 5.2-7.6 6.7-14 8.7-1.9.6-9.5 2-10.5 3.8-1.3 2.4.8 4.6.7 6.9-.4 6.4-6.1-2.5-9.4-3.5-2.3-.7-6.1.4-8.3.2-3.8-.1-7.5-.8-11.2-2-2.7-.8-5.1-2.4-7.7-3.3-3.8-1.3-3.2-1.2-6.5 1.1-6.5 4.4-13.8 6.1-21.5 6.7-3.6.2-6.3-.2-8.7 2.7-1.5 1.8-1.3 6.2-3.5 7.4-3.7 2-6-8.2-8.1-10.5-2-2.1-3.5-2.3-6-3.8-3.7-2.3-5.4-5-7.6-4.8-5.1.4-14 4.4-19.8 5.1-16.7 2.1-34.9.7-50.9-3.9-6.1-1.7-12.3-4.6-16.8.7-1.1 1.2-3.7 6-6 5.5-2.4-.5-3.6-8.5-4-10.2-4.5-.6-10-2.1-12.5-3.3-4.8-2.5-9.4-5.8-12.9-10-6-7.1-6.9-20-.5-27 14.6-15.9 42.5-19.9 63.1-19.9 11.2 0 22.5.8 33.3 3.9 5 1.4 9.8 3.6 14 6.3 2.5 1.7 9 6.1 12.5 11 .3 0 6.5-5.8 13.5-8.1zM142.2 91C117.6 65.5 78 67.1 46.3 76.6c-13.9 4.2-31.4 13.7-25 30.8 2.6 7 10.1 12.6 16.7 15.6 3.1 1.4 7 .8 10.2 2 3.9 1.4 2.3 4.3 3.8 9.2 2.4-1.9 5.2-7.1 8.3-8.2 2.3-.7 7.9 1.2 10.8 2 12.1 3.3 24.8 5.8 37.5 5.6 11.4-.2 24.4-.6 34.3-7.3 9.4-6.4 7.9-19 3.5-28.1m18.1 46.5c1.5.4 1.7-5.7 2.9-6.7 2-1.7 6.9-1.2 9.8-1.3 8-.5 15.6-1.9 22-7.1 13.8-11.2 10.2-30.7-2.5-41.3-6.8-5.6-16.8-7.6-25.4-7.1-6.3.4-19.2 2.7-23.1 8.8-1.8 2.7-.8 2.5.8 5.6 2 3.8 3.5 8 4.2 12.3 1.2 7.7-.6 15.4-6.5 20.6 2.3 3.5 13.8 7.3 14.5 8.3 1.7 3.5 1.3 5.7 3.3 7.9zm76-14c1.4-.5 8.2-2.6 11.5-3.8 7.7-2.7 17.1-10.6 18.1-19.4 2-19.4-25.6-31.2-40.9-29.9-8 .7-16.5 5.8-21.4 12-3.3 4.3-1.3 5.1.8 9.6 1.9 4.4 2.9 8.7 2.7 13.6-.1 2.6-.5 5.2-1.3 7.6-.5 1.4-3 4.6-3.1 6.1-.2 3.8 4.9 5.1 8.3 6.2 4 1.2 8.6 1.7 12.7 1.3 5.4-.5 6.9.2 11.3 3.7.1.1-.7-6.3 1.3-7zM275.5 199.8c-1 1.9-7.1 3.8-8.9 3.2-2.6-1-2.3-1.4-2.7-4-1-5.8-.2-12.7-1.1-18.8-.4-2.9-.4-7.5-1.9-10.1-1.5-2.7-1-2.4-4.9-2.4-4 0-8.3.5-12.3.2-3.1-.1-9.2-2.9-11.8-1.2-3.9 2.5-5.5 12.7-6.4 16.7-.5 2-.7 3.9-1 6-.2 1.7.5 7.5-.2 8.7-1.5 2.7-7.6 4-9.3 0-1.4 3.6-5.7 31.5-8.2 31.1-3.1-.5 3.9-27 4.9-30.1 3.6-11.5 7.7-22.7 13.8-33.3 4.9-8.5 11.5-19.3 22.6-18.2 10.5 1.1 15.9 13.2 19.8 21.7 5.1 11.4 9.4 23.4 12.5 35.6 1.4 5.5 2.5 11.1 3.8 16.7.4 1.7 4.6 13.2-.2 11.1-2.4-1.1-3.3-12.6-3.8-15-1.3-6.1-2.7-12-4.4-18-.1 0-.2.1-.3.1zm-26.9-48.1c.2 2.6-.4 4.8 2.1 5.6-.3-1.9-.6-3.8-2.1-5.6zm9.4 5.3c-1-1-1.9-1.9-2.7-2.9-.6.6 1.5 3.2 1.8 3.7.2-.3.5-.6.9-.8zm9.3 17.4c.6 3.6.6 3.6 1.5 3.8-.5-1.5-1.1-2.6-1.5-3.8zm-22.8-21.5h-.4c-1.4 2-1.3 3.2.4 3.5v-3.5zM33.1 166.1h-8.2c-2.1 0-6.1 1-7.9.1-1.9-.8-1.5-2-.1-2.9 1.7-.8 5.2-.5 7-.6 2.5-.1 5-.1 7.5-.1 2.6 0 3.8.5 5.4-1.7 2.7-4 6.4-7.1 9.5-10.8 1.7-1.9 1.9-2.3 4.4-1.4 2.5.8 4.9 1.9 7.3 3.2 1.9 1.1 3.5 2.4 5 3.9 1.4 1.5 2.9 4.4 5 5 2.6.8 12.4-1.9 13.5 1.5 1.2 3.9-10.6 1.8-12.3 1.5 12.1 14.8 18.9 33.8 25.6 51.5.5 1.3 2.4 5 1 6.4-1.2 1.2-2.4 0-3-1.1-1-1.9-1-4.4-1.7-6.4-.7-2.1-1.5-4.4-2.3-6.5-3.6-9.4-7.7-18.7-12.1-27.6-2.1-4.3-4.5-7.9-7.3-11.8-.8-1.3-1.5-2.9-2.9-3.7-1.9-1.2-4.4-.6-6.4-.5-5.2.4-10.5.5-15.7.7-1.8.1-4.4-.2-6.1.4-2 .8-2.9 3.8-3.7 5.6-4.5 8.8-7.1 18.7-9.8 28.3-1.2 4.3-2.5 8.6-3.6 12.9-.5 2-1.4 13.1-3.9 13.1-3.7 0 .7-11.8 1.3-13.7 1.5-5.2 2.7-10.6 4.2-15.8 2.8-9.8 6-19.7 10.3-29.5zM55 156c.7 2 2.4 2 4 2.1-1.2-.6-2.5-1.4-4-2.1z"/><path d="M152.4 158.2c.2.6 2.9 6.8.6 6.5-1.4-.1-3.2-6.5-4-7.9.8 4.9 0 9.8-2.1 2.6-.6 1.7-.8 7.9-3.7 7.5-.1-3.6.7-7 1.1-10.5-6.8 11.8-14.5 23.4-20.5 35.7-3 6.1-5.6 12.1-7 18.8-.4 1.9-1.7 16.4-4.5 11.8-.7-1.3 1.2-8.8 1.4-10.5.5-3.5 1.3-6.7 2.5-10 2.5-7 5.7-14.3 9.5-20.7 4-6.9 8.5-13.7 12.3-20.7 1.5-2.9 3.3-5.8 4.3-8.9.5-1.7.4-7.3 2-8-.2.1 11.7 13.8 13 15 6.1 5.7 11 12 15.4 19.2 8.5 13.6 14.8 29.6 18.2 45.2.5 2 2.3 7.1-.2 8.2-2.9 1.3-3.3-6.9-3.7-8.7-1.7-7.9-3.9-15.5-7-23-6.5-15.6-14.5-30.6-27.6-41.6z"/><path d="M161.9 182.7c-3.6-.1-3.2-5.5-.1-4.8 2.4.6 2.9 4.9.1 4.8zM62.9 174.5c.8-.1 2.1 1.1 1.9 2.4-.1.7-1.1 1.5-1.9 1.9-1.1.4-2.6-1.4-2.6-2.9.2-1.4 1.3-1.4 2.6-1.4zM255.4 181.7c-2.5 0-3.3-4.3-1-4.8 2.3-.3 3.1 4 1 4.8zM138.7 182.9c-2 0-3.6-3.6-1-4.2 2-.4 4.2 4.1 1 4.2zM41 179.4c-1 0-2.3-1.1-2.3-1.8 0-.8 1.1-1.9 1.9-2 .8-.1 2.4 1.2 2.4 1.8 0 1.2-.7 2-2 2zM234.1 177.2c2.4 0 2.9 3.6.6 4.3-2.4.7-2.9-4.3-.6-4.3z"/><g><path d="M35.2 96.6c-.4 1-3.7.6-3.8-.5 0 0 1-.1 1.1-.2.5-1.1.6-3.6.5-4.6-2.1.4-1.2-1 .5-1.2.5 0 1.8-.1 1.9.5 0 .1-1.2 1-1.3 1.2-.4.6-.6 3.9-.2 4.4.2.2 1.6-.9 1.3.4zM46.7 92.5c0 .8-.4 4.4-1.7 4.5-.8 0-1.2-3.1-1.2-3.6-.2.5-1.2 3.7-2 3.6-1.4-.1-.8-2.7-.7-3.6 0-.8-.4-2.7.5-3.1 1-.5.4 4.4.4 4.8.5-.6 1.3-4.3 2.3-4.3s.8 3.2 1.2 3.9c.1-.8 0-4.2.7-4.5.6-.5.5 1.9.5 2.3zM51.6 96.2c-.1.6-.5.7-1 .6s-.1-1.2-.8-1.4c-1.7-.7-1.7 2.1-2.6 1.4-1-.7 1.1-7 2.7-6.7 1.4.2 1.9 4.9 1.7 6.1zm-1.3-1.9c0-1 .1-2.3-.6-3.1-.8.8-1 2-1.2 3.1h1.8zM56.9 96.2c-.4 2.6-2.7-2.7-2.9-3.1 0 .7.2 3.5-.5 3.8-1.1.7-.5-2.5-.5-2.9 0-.6-.1-3.7.8-3.7.7 0 1.7 3.7 2 4.3.1-.5-.2-4.8.7-4.3 1.2.3.4 5.4.4 5.9zM63.2 90.7c0 .4-1.5.5-1.8.8-.8.8 0 3.1-.5 4.2-1 2.5-1.1.1-1-1.5.1-1.1.5-2.3-.1-2.9-.1-.1-1.8.6-1.5-.4.3-.8 4.6-1.4 4.9-.2zM72.8 90.7c0 .4-1.5.5-1.8.8-.8.8 0 3.1-.5 4.2-1 2.5-1.1.1-1-1.5.1-1.1.5-2.3-.1-2.9-.1-.1-1.8.6-1.5-.4.2-.8 4.6-1.4 4.9-.2zM77.7 93.5c-.4 3.9-5.2 4.8-4.9.1.2-3.9 5.3-4.9 4.9-.1zm-1.2-.3c.2-2.9-2.5-2.1-2.7.4-.3 3.2 2.4 2.4 2.7-.4zM87.5 90.7c0 .4-1.5.5-1.8.8-.8.8 0 3.1-.5 4.2-1 2.5-1.1.1-1-1.5.1-1.1.5-2.3-.1-2.9-.1-.1-1.8.6-1.5-.4.3-.8 4.6-1.4 4.9-.2zM92.5 96.2c-.1.6-.5.7-1 .6s-.1-1.2-.8-1.4c-1.7-.7-1.7 2.1-2.6 1.4-1-.7 1.1-7 2.7-6.7 1.5.2 2 4.9 1.7 6.1zm-1.3-1.9c0-1 .1-2.3-.6-3.1-.8.8-1 2-1.2 3.1h1.8zM97.6 95.6c-.4 1.3-3 2-3.7.8-.6-1 .1-3 .2-3.9 0-.5-.1-2.7 1-2.1 1 .5-.6 4.6-.4 5.7.3-.2 3.3-1.5 2.9-.5zM102.8 96.5c-.2 1.7-2.6-2.3-2.7-2.3-1.4-.1.1 2.5-1 2.7-1.8.2.8-11.1.6-4.5.5-.2 3.3-3.5 3.2-1.3 0 .2-1.5 1-1.7 1.2-1.2 1.7 1.4 2.1 1.6 4.2zM112.6 96.2c-.1.6-.5.7-1 .6s-.1-1.2-.8-1.4c-1.7-.7-1.7 2.1-2.6 1.4-1-.7 1.1-7 2.7-6.7 1.5.2 2 4.9 1.7 6.1zm-1.3-1.9c0-1 .1-2.3-.6-3.1-.8.8-1 2-1.2 3.1h1.8zM118.7 94.7c-.2 1.7-3.7 3.2-4.6 1.7-.5-.7 0-4.5.2-5.2.5-1.2 3.5-1.9 4.2-.2.2.6-.4 1.1-.4 1.5 0 .6.7 1.3.6 2.2zm-1.2-.3c.4-1.5-2.3-.6-2.5.5-.5 1.9 2.5.8 2.5-.5zm-.2-2.8c.2-1-1.5-.5-1.8-.1-.4.4-.2 1.1-.2 1.5.7-.3 1.7-.5 2-1.4zM124.7 93.5c-.4 3.9-5.2 4.8-4.9.1.3-3.9 5.3-4.9 4.9-.1zm-1.1-.3c.2-2.9-2.5-2.1-2.7.4-.4 3.2 2.5 2.4 2.7-.4zM130.3 93.5c-.1 1.4-1.2 3.9-3.1 3.3-1.8-.5-1.5-3-1.3-4.4.5-3.3 1.5-2.6 1.1.4-.1 1-.7 2.6.6 2.9 2.3.4 1.2-3.8 1.4-4.5 1.1-2.3 1.4.9 1.3 2.3zM136.2 90.7c0 .4-1.5.5-1.8.8-.8.8 0 3.1-.5 4.2-1 2.5-1.1.1-1-1.5.1-1.1.5-2.3-.1-2.9-.1-.1-1.8.6-1.5-.4.3-.8 4.7-1.4 4.9-.2zM35.9 105c.1 1.3-1.1-.2-1.1-.2-.6-.1-.2-.8-1.2-.6-.4.1-.6.7-.8 1.1-.4.6-1 2.9-.1 3.5.8.6 1.9-1.1 2.4-.7 1 .6-1.9 2.9-3.5 1-1.1-1.3-.5-3.7.5-5 1.2-1.5 3.8-1.5 3.8.9zM41.2 106.4c-.1 1.4-1.2 3.9-3.1 3.3-1.8-.5-1.5-3-1.3-4.4.5-3.3 1.5-2.6 1.1.4-.1 1-.7 2.6.6 2.9 2.3.4 1.2-3.8 1.4-4.5 1.2-2.3 1.4.9 1.3 2.3zM46.9 107.3c-.2 1.7-2.7 3.7-4.2 1.9-1-1.2 0-.7.5-.7.7-.1 1.1.7 2 .2.5-.2 1.2-1.3.6-1.9-1.1-1-2.5 1.4-3.3-1-.6-1.8 1.5-3.7 3.3-2.7 2.4 1.2-.4.8-.6.8-.7.1-2.7.8-1.5 1.9.9.7 3.5-1.5 3.2 1.5zM52.9 103.5c0 .4-1.5.5-1.8.8-.8.8 0 3.1-.5 4.2-1 2.5-1.1.1-1-1.5.1-1.1.5-2.3-.1-2.9-.1-.1-1.8.6-1.5-.4.3-.8 4.5-1.4 4.9-.2zM57.7 106.4c-.4 3.9-5.2 4.8-4.9.1.3-3.9 5.3-5 4.9-.1zm-1.1-.4c.2-2.9-2.5-2.1-2.7.4-.4 3.2 2.4 2.5 2.7-.4zM64.1 109c-.8 2.7-1.1-3.7-1.1-3.7-.1.6-1.1 3.9-1.9 3.9-.6 0-.8-3.1-1.1-3.6-.1.4.1 3.6-.4 3.9-1.2 1-1-2.3-1-2.7 0-.6.2-3.2 1-3.7 1.4-.7 1.5 3 1.5 3.9.5-1 1.3-5 2.7-3.6 1 .9.5 4.8.3 5.6zM70.4 107.8c-.6 1-3.5 2.5-4.4 1.7-1.4-1.2.1-5.8 1.3-6.4.6-.4 3.7-.1 2.3.7-.8.6-2.5-.4-2.5 1.4.4 0 4-.7 2.6.6s-3.6-.4-2.9 2.7c1.2-.1 2.5-1.6 3.6-.7zM76.1 109.3c-.4 1.8-3.2-2-3.7-2-.1.7.4 2.9-.8 2.4-.6-.2-.2-5.2.1-5.8 2-3.1 6.7 1.9 1.8 3 .5.1 2.7 2.1 2.6 2.4zm-1.3-4.9c0-.4-2.7-1-2.1 1.5.8 0 2-.6 2.1-1.5zM86 107.3c-.2 1.7-2.7 3.7-4.2 1.9-1-1.2 0-.7.5-.7.7-.1 1.1.7 2 .2.5-.2 1.2-1.3.6-1.9-1.1-1-2.5 1.4-3.3-1-.6-1.8 1.5-3.7 3.3-2.7 2.4 1.2-.4.8-.6.8-.7.1-2.7.8-1.5 1.9.9.7 3.5-1.5 3.2 1.5zM91.9 107.8c-.6 1-3.5 2.5-4.4 1.7-1.4-1.2.1-5.8 1.3-6.4.6-.4 3.7-.1 2.3.7-.8.6-2.5-.4-2.5 1.4.4 0 4-.7 2.6.6-1.4 1.3-3.6-.4-2.9 2.7 1.3-.1 2.6-1.6 3.6-.7zM97.6 109.3c-.4 1.8-3.2-2-3.7-2-.1.7.4 2.9-.8 2.4-.6-.2-.2-5.2.1-5.8 2-3.1 6.7 1.9 1.8 3 .5.1 2.6 2.1 2.6 2.4zm-1.4-4.9c0-.4-2.7-1-2.1 1.5.9 0 2.1-.6 2.1-1.5zM103 103.8c0 1.2-1 5.6-2.1 6-1.5.5-1.4-2.1-1.5-3.1 0-.4-.7-3.5.1-3.6 1 0 1 4.3 1.1 5 .7-1.2.5-3.5 1.3-4.3.4-.4 1.1-1.3 1.1 0zM104.8 108.7c-.2 1.2-.6 1.3-1.1.4-.4-.7 0-5 .5-5.6.7-.8.7-.6 1 .4.3 1.2-.3 3.6-.4 4.8zM110.9 105c.1 1.3-1.1-.2-1.1-.2-.6-.1-.2-.8-1.2-.6-.4.1-.6.7-.8 1.1-.4.6-1 2.9-.1 3.5.8.6 1.9-1.1 2.4-.7 1 .6-1.9 2.9-3.5 1-1.1-1.3-.5-3.7.5-5 1.3-1.5 3.9-1.5 3.8.9zM116.5 107.8c-.6 1-3.5 2.5-4.4 1.7-1.4-1.2.1-5.8 1.3-6.4.6-.4 3.7-.1 2.3.7-.8.6-2.5-.4-2.5 1.4.4 0 4-.7 2.6.6-1.4 1.3-3.6-.4-2.9 2.7 1.2-.1 2.6-1.6 3.6-.7z"/><g><path d="M168.8 109.3c-.2 1.3-3.3 3.2-4.4 2.4-1.2-.8-.5-3.5-.2-4.6.7-3.3 5.4-1.9 3.5.2.8.2 1.2 1.1 1.1 2zm-1.2-.4c.1-1.5-2.5-.5-2.6.6-.2 1.9 2.5.7 2.6-.6zm-.6-2.5c.1-1-1.9-.4-1.7 1.2.6 0 1.6-.6 1.7-1.2zM174.4 108.4c-.1 1.4-1.2 3.9-3.1 3.3-1.8-.5-1.5-3-1.3-4.4.5-3.3 1.5-2.6 1.1.4-.1 1-.7 2.6.6 2.9 2.3.4 1.2-3.8 1.4-4.5 1.2-2.3 1.4.9 1.3 2.3zM180.3 108.2c-.2 2.9-3.9 5.6-4.8 1.4-.4-1.7.5-3.8 2-4.5.4-.1 2.3-.6 2.1.4-.1.6-.6 0-1 .4-1.2 1-2.4 1.2-2.3 3.3.1 2.9 2.7 1.4 2.5-.7-3.9.2 1.8-2.6 1.5-.3zM185.7 109.4c-.2 1.7-2.7 3.7-4.2 1.9-1-1.2 0-.7.5-.7.7-.1 1.1.7 2 .2.5-.2 1.2-1.3.6-1.9-1.1-1-2.5 1.4-3.3-1-.6-1.8 1.5-3.7 3.3-2.7 2.4 1.2-.4.8-.6.8-.7.1-2.7.8-1.5 1.9 1 .6 3.6-1.6 3.2 1.5z"/></g><g><path d="M229.9 107.5c-.8 1.4-3.7 1.2-4.4 0-.5-.8.4-6.4 1.3-5.7.7.5-.5 3.6-.2 4.4.5 1.5.5.8 1.9.8.2 0 1.6-.2 1.4.5zM235.6 105c-.4 3.9-5.2 4.8-4.9.1.4-3.9 5.4-4.9 4.9-.1zm-1.1-.4c.2-3-2.5-2.1-2.7.4-.4 3.2 2.5 2.5 2.7-.4zM241.4 104.8c-.2 2.9-3.9 5.6-4.8 1.4-.4-1.7.5-3.8 2-4.5.4-.1 2.3-.6 2.1.4-.1.6-.6 0-1 .4-1.2 1-2.4 1.2-2.3 3.3.1 2.9 2.7 1.4 2.5-.7-3.8.2 1.9-2.5 1.5-.3zM247.3 105c-.4 3.9-5.2 4.8-4.9.1.2-3.9 5.3-4.9 4.9-.1zm-1.2-.4c.2-3-2.5-2.1-2.7.4-.3 3.2 2.4 2.5 2.7-.4z"/></g></g></svg>