<svg xmlns="http://www.w3.org/2000/svg" viewBox="0 0 300 250"><path d="M125.8 103.4c41.6-27.3 157.7-31.4 139.7 45.8-8 34.2-42.6 41.8-73.8 39.7-16-1.1-31.3-3.5-46.6-8.1-9.1-2.7-17.3-5.9-25.7-10.3-8.7-4.5-16.3-5.1-25.4-8.2 2.9-4.9 10.2-9.1 12.1-14.2 1.6-4.2.2-10.9.8-15.4.9-7.6 3.4-13.7 8.3-19.6.5-.6 10.2-10.3 10.6-9.7zM226.6 183c13.3-5 25.2-9.2 31.7-22.7 6-12.4 7.5-28.3 1.5-40.9-12.3-25.7-40.6-31.2-66.4-30.5-22.5.6-47.3 4.8-66.2 17.7-10.4 7.1-16.2 18-17.4 30.3-.5 4.8 1.1 11.4-1.1 15.4-1.5 2.7-6 3.9-7.6 8 20 1.9 38.4 16.1 58.6 20.7 21.6 4.9 45.1 5.6 66.9 2z"/><path d="M148.8 143.9c-.4 2.5-2.4.5-2.9-.2s.2-2.6-.4-3.1c-.9-.9-3.6-.2-4.6 0-1.6.4-2.2.9-3.3 2-.3.3-.1 1.7-.6 2-3.5 2-2.2-4.8-1.7-5.9 1.2-3.3 5.3-18.5 10.2-12.1 1.8 2.3 2 7.6 2.5 10.3.4 2.3 1.1 4.8.8 7zm-4.5-8.2c0-2.4-.8-4.6-1.4-6.8-1 1-4.3 6.5-3.2 8 .7 1 4.4.1 4.6-1.2zM166.5 134.7c-.3 3.4-1.6 8.3-5 10-3.8 1.9-7.3-.6-8.5-4.2-1.4-4.1-.4-9.2 2.4-12.4 1.5-1.7 6.5-5.1 8.7-2.8 1.3 1.3.6 1.6-.1 2.3-.6.6-3.9.5-5 1.4-1.9 1.4-2.8 3.8-3.2 6-.5 2.5-.8 7.4 2.9 7.5 3.5.1 4.5-4.6 4.3-7.3-12.2.9 4.7-7.3 3.5-.5zM183.4 139.5c-2.2 3.3-11.2 7.8-13.5 3.6-2.1-3.8.2-15.9 4.1-17.6 1-.5 10.7-1.6 7.8 1.8-2.1 2.5-7.9-1.5-7.9 4.5 1.4 0 11.6-2.5 7.7 1.7-1.3 1.4-4.9.2-6.6 1.2-2.5 1.4-2.4 4.2-1.8 6.8 2.4-.4 8.1-5.2 10.2-2zM198.3 142.7c-1 8-8-8.3-8.4-9.2-.1 1.6.5 11-1.9 11.5-3 .5-1.1-11.6-1-13.2.2-2.3.6-8.4 3.6-5.3 2.6 2.7 2.3 8.3 4.9 11.4.3-1.7-1.1-13.2 2.1-12.8 2.4.3.8 16.5.7 17.6zM215.9 133.5c-.2 4-2.8 9-6.5 10.8-7.7 3.7-6.7-5-6.1-9.7.3-2.4-.1-7.4 1.9-9.1 1.6-1.4 5.4-.9 7.1-.1 3.1 1.6 3.9 4.9 3.6 8.1zm-3-.8c.6-4.8-5.1-7-6.3-2-.6 2.6-1.9 10 .9 9.9 3.5.1 5.1-5.3 5.4-7.9zM231.5 143c-.4 2-2 2.4-3.3 1.1-1.7-1.8 1-4.6-3.4-3.9-3.2.5-2 .4-3.5 3-.3.4-.3 1.4-.9 1.6-2.8 1-2-3.4-1.8-4.8.5-3.2 5.1-20.4 10.3-13.5 1.6 2.2 1.3 6.2 1.6 8.8.1 2.3 1.4 5.5 1 7.7zm-3.7-5.7c-.2-2.7.2-6.8-1.6-9.1-2.4 2.3-2.8 6-3.4 9 1.6.2 3.3.1 5 .1zM248.1 129.4c-.9 3.5-4.9 4.8-7.7 6.4 1.2.6 4.3-.2 4.7.9.8 2-2.1 1.9-3.1 1.9-2.5.2-6.1-.6-5.2-3.7.9-2.8 6.1-2.4 7.4-4.7 1.5-2.5-.8-3.5-3.5-2.7-1.7.5-3.9 4.2-5.3 3-2-1.7 3-4.8 4.1-5.2 3.5-1.2 8.8-.6 8.6 4.1zm-6.5 13.6c-.4 3-5 3-5-.1 0-2.9 5.6-2.7 5 .1z"/><g><path d="M73.9 166.8c-3.6 4.2-8.8 9.6-14.6 14-2.9 2.2-6.1 4.1-9.2 5.4-3.1 1.3-6.3 1.9-9 1.8-1.4-.1-2.6-.3-3.7-.7-1.1-.3-2-.7-2.7-1.1-.4-.2-.7-.4-.9-.6-.3-.2-.5-.3-.7-.5-.4-.3-.5-.4-.5-.4l.5.5c.2.2.4.3.6.5.3.2.5.4.9.7.7.5 1.5 1 2.6 1.5s2.3.9 3.8 1.2c2.8.5 6.3.3 9.8-.7s7.1-2.6 10.4-4.5c6.4-3.7 12.2-8.4 16.4-12.2.2-.2.4-.4.6-.5l.6-.6v-9.8c-.2.2-.4.5-.6.8-1.1 1.3-2.5 3.1-4.3 5.2M74.9 181.3c-3.6 4.2-8.8 9.6-14.6 14-2.9 2.2-6.1 4.1-9.2 5.4-3.1 1.3-6.3 1.9-9 1.8-1.4-.1-2.6-.3-3.7-.6-1.1-.4-2-.7-2.7-1.1-.4-.2-.7-.4-.9-.6-.3-.2-.5-.3-.7-.4-.4-.3-.5-.4-.5-.4l.5.5c.2.2.4.3.6.5.3.2.5.5.9.7.7.5 1.6 1 2.6 1.5 1.1.5 2.3.9 3.8 1.2 2.9.5 6.3.3 9.8-.7s7.1-2.6 10.4-4.5c6.5-3.7 12.3-8.5 16.5-12.3v-9.4c-.9 1-2.2 2.6-3.8 4.4M75.4 195.9c-3.7 4.2-8.8 9.6-14.7 14-2.9 2.2-6.1 4.1-9.2 5.4-3.1 1.3-6.3 1.9-9 1.8-1.4-.1-2.6-.3-3.7-.7-1.1-.4-2-.7-2.7-1.1-.4-.2-.7-.4-.9-.5-.3-.2-.5-.3-.7-.5-.4-.3-.6-.4-.6-.4l.5.5c.2.1.4.3.6.5.2.2.5.4.9.7.7.5 1.6 1 2.6 1.5 1.1.5 2.3.9 3.7 1.2 2.9.5 6.3.3 9.8-.7s7.1-2.6 10.4-4.5c6.3-3.6 11.9-8.2 16.1-12v-9.3c-.7 1.2-1.8 2.6-3.1 4.1"/></g></svg>