<svg xmlns="http://www.w3.org/2000/svg" xmlns:xlink="http://www.w3.org/1999/xlink" viewBox="0 0 234.833 336"><defs><linearGradient id="c"><stop offset="0" stop-color="#aaf8e7"/><stop offset="1" stop-color="#aaf8e7" stop-opacity="0"/></linearGradient><linearGradient id="b"><stop offset="0" stop-color="#fed9da"/><stop offset="1" stop-color="#fed9da" stop-opacity="0"/></linearGradient><marker id="e" orient="auto" overflow="visible"><path fill="#fed9da" fill-rule="evenodd" stroke="#fed9da" stroke-width=".375" d="M-5.23-2.42L1.323-.01-5.23 2.4c1.046-1.422 1.04-3.37 0-4.82z" stroke-linejoin="round"/></marker><linearGradient id="a"><stop offset="0" stop-color="#73c79d"/><stop offset="1" stop-color="#73c79d" stop-opacity="0"/></linearGradient><linearGradient id="d" x1="37.042" x2="37.042" y1="64.167" y2="-36.375" xlink:href="#a" gradientUnits="userSpaceOnUse" gradientTransform="translate(0 -8.996)"/><marker id="g" orient="auto" overflow="visible"><path fill="#fed9da" fill-rule="evenodd" stroke="#fed9da" stroke-width=".375" d="M-5.23-2.42L1.323-.01-5.23 2.4c1.046-1.422 1.04-3.37 0-4.82z" stroke-linejoin="round"/></marker><marker id="i" orient="auto" overflow="visible"><path fill="#aaf8e7" fill-rule="evenodd" stroke="#aaf8e7" stroke-width=".375" d="M-5.23-2.42L1.323-.01-5.23 2.4c1.046-1.422 1.04-3.37 0-4.82z" stroke-linejoin="round"/></marker><marker id="j" orient="auto" overflow="visible"><path fill="#aaf8e7" fill-rule="evenodd" stroke="#aaf8e7" stroke-width=".375" d="M-5.23-2.42L1.323-.01-5.23 2.4c1.046-1.422 1.04-3.37 0-4.82z" stroke-linejoin="round"/></marker><linearGradient id="f" x1="88.9" x2="108.744" y1="109.675" y2="75.305" xlink:href="#b" gradientUnits="userSpaceOnUse"/><linearGradient id="h" x1="159.808" x2="139.965" y1="109.146" y2="74.775" xlink:href="#c" gradientUnits="userSpaceOnUse"/></defs><g transform="translate(32.75 53.25)"><path fill="url(#d)" d="M34.396-46.958h5.292v108.48h-5.292z"/><path fill="#67c2e8" d="M34.396 64.167h5.292v129.646h-5.292z"/><circle cx="37.042" cy="56.958" r="8.918" fill="#62d8dd" stroke="#fff" stroke-width="2"/><text x="64.531" y="-2.921" stroke-width=".566" style="line-height:125%;text-align:start" font-size="7.069" letter-spacing="0" word-spacing="0"><tspan x="64.531" y="-2.921" style="text-align:start">We ask if this meeting</tspan><tspan x="64.531" y="5.915" style="text-align:start">requires an agenda.</tspan></text><text x="64.531" y="54.376" stroke-width=".566" style="line-height:125%;text-align:start" font-size="7.069" letter-spacing="0" word-spacing="0"><tspan x="64.531" y="54.376" style="text-align:start">We send out emails to all guests and</tspan><tspan x="64.531" y="63.212" style="text-align:start">ask if the meeting has an agenda.</tspan></text><rect width="58.208" height="15.875" x="58.208" y="117.083" fill="#fed9da" ry="5" rx="5"/><text x="69.347" y="126.857" stroke-width=".566" style="line-height:125%;text-align:start" font-size="7.069" letter-spacing="0" word-spacing="0"><tspan x="69.347" y="126.857" style="text-align:start">No agenda</tspan></text><rect width="58.208" height="15.875" x="132.292" y="117.083" fill="#aaf8e7" ry="5" rx="5"/><text x="141.967" y="126.857" stroke-width=".566" style="line-height:125%;text-align:start" font-size="7.069" letter-spacing="0" word-spacing="0"><tspan x="141.967" y="126.857" style="text-align:start">Has agenda</tspan></text><rect width="52.917" height="26.458" x="60.854" y="180.583" fill="#fed9da" ry="5" rx="5"/><text x="87.42" y="191.954" stroke-width=".566" style="line-height:125%;text-align:center" font-size="7.069" letter-spacing="0" word-spacing="0" text-anchor="middle"><tspan x="87.42" y="191.954" style="text-align:center">Meeting</tspan><tspan x="87.42" y="200.79" style="text-align:center">canceled</tspan></text><rect width="58.208" height="26.458" x="132.292" y="254.667" fill="#aaf8e7" rx="5" ry="5"/><text x="161.137" y="265.223" stroke-width=".566" style="line-height:125%;text-align:center" font-size="7.069" letter-spacing="0" word-spacing="0" text-anchor="middle"><tspan x="161.137" y="265.223" style="text-align:center">Meeting</tspan><tspan x="161.137" y="274.059" style="text-align:center">is a go</tspan></text><path fill="#8c7fe0" d="M34.396 191.167h5.292v74.083h-5.292z"/><circle cx="37.042" cy="193.813" r="8.918" fill="#027fd0" stroke="#fff" stroke-width="2"/><circle cx="37.042" cy="267.896" r="9.64" fill="#a25cc7" stroke="#fff" stroke-width="2"/><path fill="#fed9da" fill-rule="evenodd" stroke="#fed9da" stroke-width="2" d="M87.312 132.958v39.688" marker-end="url(#e)"/><g fill-rule="evenodd" stroke-width="2"><path fill="#fed9da" stroke="url(#f)" d="M108.744 75.305L88.9 109.675" marker-end="url(#g)"/><path fill="#aaf8e7" stroke="url(#h)" d="M139.965 74.775l19.843 34.37" marker-end="url(#i)"/></g><path fill="#aaf8e7" fill-rule="evenodd" stroke="#aaf8e7" stroke-width="2" d="M161.377 132.958l.02 113.77" marker-end="url(#j)"/><text x="10.802" y="55.065" fill="#333" stroke-width=".566" style="line-height:125%;text-align:end" font-size="7.069" letter-spacing="0" word-spacing="0" text-anchor="end"><tspan x="10.802" y="55.065" style="text-align:end">24 Hours</tspan><tspan x="10.802" y="63.901" style="text-align:end">Before</tspan></text><text x="10.54" y="191.883" fill="#333" stroke-width=".566" style="line-height:125%;text-align:end" font-size="7.069" letter-spacing="0" word-spacing="0" text-anchor="end"><tspan x="10.54" y="191.883" style="text-align:end">1 Hour</tspan><tspan x="10.54" y="200.719" style="text-align:end">Before</tspan></text><text x="10.555" y="266.037" fill="#333" stroke-width=".566" style="line-height:125%;text-align:end" font-size="7.069" letter-spacing="0" word-spacing="0" text-anchor="end"><tspan x="10.555" y="266.037" style="text-align:end">Meeting</tspan><tspan x="10.555" y="274.873" style="text-align:end">Start</tspan></text></g></svg>