<svg xmlns="http://www.w3.org/2000/svg" viewBox="0 0 32 32"><path d="M6 14l-.365-2.19c-.377-.106-.736-.257-1.07-.445l-1.807 1.29-1.414-1.413 1.29-1.806c-.186-.335-.337-.694-.443-1.07L.004 8V6l2.19-.365c.106-.377.255-.736.443-1.07l-1.29-1.807L2.76 1.344l1.805 1.29c.335-.186.696-.338 1.073-.445L6.002 0h2l.363 2.19c.377.106.737.257 1.072.445l1.807-1.29 1.414 1.413-1.29 1.806c.186.335.336.694.443 1.07L14.004 6v2l-2.19.365c-.108.377-.257.736-.445 1.07h-.002l1.29 1.807-1.413 1.414-1.806-1.29c-.335.186-.694.338-1.07.445L8 14zm1-5c1.105 0 2-.895 2-2s-.895-2-2-2-2 .895-2 2 .895 2 2 2z" class="c3"/><path d="M20 32l-.383-2.105c-.25-.04-.5-.09-.744-.15l-1.158 1.8-1.848-.766.45-2.094c-.215-.13-.425-.272-.628-.42l-1.76 1.217-1.415-1.414 1.218-1.76c-.15-.203-.29-.413-.42-.63l-2.093.45-.765-1.846 1.8-1.158c-.06-.244-.11-.493-.15-.744L10 22v-2l2.105-.383c.04-.25.09-.5.15-.744l-1.8-1.158.766-1.848 2.093.45c.133-.215.273-.425.422-.628l-1.218-1.76 1.414-1.415 1.76 1.218c.203-.15.413-.29.63-.422l-.45-2.09 1.846-.766 1.158 1.8c.244-.06.493-.11.744-.15L20 10h2l.383 2.105c.25.04.5.09.744.15l1.158-1.8 1.848.766-.45 2.094c.215.132.425.272.628.42l1.76-1.217 1.415 1.414-1.218 1.76c.15.203.29.413.422.63l2.09-.45.766 1.846-1.8 1.158c.06.244.11.493.15.744L32 20v2l-2.105.383c-.04.25-.09.5-.15.744l1.8 1.158-.766 1.848-2.094-.45c-.132.215-.272.425-.42.628l1.217 1.76-1.414 1.415-1.76-1.218c-.203.15-.413.29-.63.42l.45 2.093-1.846.765-1.158-1.8c-.244.06-.493.11-.744.15L22 32zm1-6.65c2.402 0 4.35-1.948 4.35-4.35 0-2.402-1.948-4.35-4.35-4.35-2.402 0-4.35 1.948-4.35 4.35 0 2.402 1.948 4.35 4.35 4.35z" class="c2"/></svg>