<svg xmlns="http://www.w3.org/2000/svg" viewBox="0 0 92.604 168.72" style="font-family:-apple-system,BlinkMacSystemFont,'Segoe UI',Roboto,'Helvetica Neue',Arial,sans-serif"><g transform="matrix(.26458 0 0 .26458 45.253 78.213)"><path d="M-154.643-262.918H158.36c2.216 0 4.012 1.797 4.012 4.013v576.91c0 2.217-1.796 4.014-4.012 4.014h-313.003c-2.217 0-4.013-1.798-4.013-4.014v-576.91c0-2.217 1.796-4.014 4.013-4.014" fill="#fefefe" fill-rule="evenodd"/><rect width="350" height="637.683" x="-171.034" y="-295.608" rx="10.032" ry="10.032" fill="#4d4d4d"/><path fill="#fff" d="M-154.388-272.35H162.32v556.585H-154.39z"/><path d="M-140.753-256.398h288.926v43.14h-288.926v-43.14M-136.74-107.922h280.9c2.216 0 4.013 1.797 4.013 4.013V119.81c0 2.216-1.797 4.013-4.013 4.013h-280.9c-2.216 0-4.013-1.796-4.013-4.012V-103.91c0-2.215 1.797-4.012 4.013-4.012m0 1.003h280.9c1.662 0 3.01 1.35 3.01 3.01V119.81c0 1.662-1.348 3.01-3.01 3.01h-280.9c-1.662 0-3.01-1.348-3.01-3.01V-103.91c0-1.66 1.348-3.01 3.01-3.01" fill="#d1d3d4" fill-rule="evenodd" stroke-linecap="square" stroke-linejoin="bevel"/><path d="M-56.483 220.13H63.903c13.298 0 24.077 10.78 24.077 24.076 0 13.298-10.78 24.077-24.077 24.077H-56.483c-13.297 0-24.077-10.78-24.077-24.077 0-13.297 10.78-24.077 24.077-24.077" fill="#a25cc6" fill-rule="evenodd" stroke-linecap="square" stroke-linejoin="bevel"/><text font-weight="700" font-size="14" y="59" x="95.5" stroke="none" transform="matrix(1.0032 0 0 1.0032 -156.804 -288.5)" fill-rule="evenodd" stroke-linecap="square" stroke-linejoin="bevel">ACTION REQUIRED</text><text font-weight="400" font-size="16" y="106" x="132" stroke="none" transform="matrix(1.0032 0 0 1.0032 -156.804 -288.5)" fill-rule="evenodd" stroke-linecap="square" stroke-linejoin="bevel">Hi Leia,</text><text font-weight="700" font-size="20" y="216" x="60.5" stroke="none" transform="matrix(1.0032 0 0 1.0032 -156.804 -288.5)" fill-rule="evenodd" stroke-linecap="square" stroke-linejoin="bevel">Please confirm if you</text><text font-weight="700" font-size="20" y="241" x="57" stroke="none" transform="matrix(1.0032 0 0 1.0032 -156.804 -288.5)" fill-rule="evenodd" stroke-linecap="square" stroke-linejoin="bevel">would like to keep the</text><text font-weight="700" font-size="20" y="266" x="44" stroke="none" transform="matrix(1.0032 0 0 1.0032 -156.804 -288.5)" fill-rule="evenodd" stroke-linecap="square" stroke-linejoin="bevel">following meeting on</text><text font-weight="700" font-size="20" y="266" x="246" stroke="none" transform="matrix(1.0032 0 0 1.0032 -156.804 -288.5)" fill-rule="evenodd" stroke-linecap="square" stroke-linejoin="bevel">the</text><text font-weight="700" font-size="20" y="291" x="116" stroke="none" transform="matrix(1.0032 0 0 1.0032 -156.725 -288.5)" fill-rule="evenodd" stroke-linecap="square" stroke-linejoin="bevel">calendar:</text><text font-weight="700" font-size="16" y="332" x="53.5" stroke="none" transform="matrix(1.0032 0 0 1.0032 -152.956 -288.5)" fill-rule="evenodd" stroke-linecap="square" stroke-linejoin="bevel">Death Star Mission Debrief</text><text font-weight="400" font-size="16" y="352" x="87.5" stroke="none" transform="matrix(1.0032 0 0 1.0032 -156.267 -288.5)" fill-rule="evenodd" stroke-linecap="square" stroke-linejoin="bevel">Wednesday, May 27</text><text font-weight="400" font-size="16" y="371" x="94" stroke="none" transform="matrix(1.0032 0 0 1.0032 -157.92 -288.5)" fill-rule="evenodd" stroke-linecap="square" stroke-linejoin="bevel">12:30pm – 2:30pm</text><text font-weight="400" font-size="16" y="390" x="128.504" stroke="none" transform="matrix(1.0032 0 0 1.0032 -156.804 -288.5)" fill-rule="evenodd" stroke-linecap="square" stroke-linejoin="bevel">Alderaan</text><text font-weight="700" font-size="16" y="536" x="92" stroke="none" transform="matrix(1.0032 0 0 1.0032 -156.804 -288.5)" fill="#fff" fill-rule="evenodd" stroke-linecap="square" stroke-linejoin="bevel">Keep this Meeting</text><text style="line-height:125%;text-align:center" x="4.122" y="-146.709" font-size="12.188" letter-spacing="0" word-spacing="0" text-anchor="middle" stroke-width=".975"><tspan x="4.122" y="-146.709" style="line-height:1.25em" font-size="15.6">Your colleagues are using <tspan fill="#8e68ad">Esper</tspan> to</tspan><tspan x="4.122" y="-127.209" style="line-height:1.25em" font-size="15.6">identify meetings that can be canceled.</tspan></text><text style="line-height:125%;text-align:center" x="3.741" y="154.825" font-size="3.307" letter-spacing="0" word-spacing="0" text-anchor="middle" fill="#2bb673" stroke-width=".265"><tspan x="3.741" y="154.825" style="line-height:1.25em" font-weight="bold" font-size="16.051">If you do not respond, we will</tspan><tspan x="3.741" y="174.89" style="line-height:1.25em" font-weight="bold" font-size="16.051">assume you are OK with canceling</tspan><tspan x="3.741" y="194.954" style="line-height:1.25em" font-weight="bold" font-size="16.051">this meeting!</tspan></text></g></svg>