<svg xmlns="http://www.w3.org/2000/svg" viewBox="0 0 92.604 168.72" style="font-family:-apple-system,BlinkMacSystemFont,'Segoe UI',Roboto,'Helvetica Neue',Arial,sans-serif"><g><g transform="matrix(.26458 0 0 .26458 25.887 71.898)"><rect width="350" height="637.683" x="-97.841" y="-271.74" fill="#4d4d4d" ry="10.032" rx="10.032"/><path fill="#fff" d="M-81.194-248.482h316.707v556.585H-81.194z"/></g><path fill="#fefefe" fill-rule="evenodd" d="M6.06 8.298h80.485c.57 0 1.032.462 1.032 1.032v132.596c0 .57-.462 1.032-1.032 1.032H6.06c-.57 0-1.033-.462-1.033-1.032V9.33c0-.57.462-1.032 1.032-1.032"/><g fill="#d1d3d4" fill-rule="evenodd" stroke-linecap="square" stroke-linejoin="bevel"><path d="M10.186 25.582h72.232c.57 0 1.032.462 1.032 1.032v44.628c0 .57-.462 1.032-1.032 1.032H10.186c-.57 0-1.03-.462-1.03-1.032V26.614c0-.57.46-1.032 1.03-1.032m0 .258h72.232c.427 0 .774.346.774.774v44.628c0 .428-.347.774-.774.774H10.186c-.427 0-.773-.346-.773-.774V26.614c0-.428.346-.774.773-.774"/></g><g fill-rule="evenodd" stroke="#000" stroke-linecap="square" stroke-linejoin="bevel"><text x="117" y="63" stroke="none" font-size="16" font-weight="400" transform="matrix(.25797 0 0 .25797 5.027 4.17)">Hi everyone,</text></g><g fill-rule="evenodd" stroke="#000" stroke-linecap="square" stroke-linejoin="bevel"><text x="53" y="119" fill="#d9534f" stroke="none" font-size="20" font-weight="700" transform="matrix(.25797 0 0 .25797 5.027 4.17)">This meeting has been</text></g><g fill-rule="evenodd" stroke="#000" stroke-linecap="square" stroke-linejoin="bevel"><text x="115" y="144" fill="#d9534f" stroke="none" font-size="20" font-weight="700" transform="matrix(.25797 0 0 .25797 5.027 4.17)">canceled.</text></g><g fill-rule="evenodd" stroke="#000" stroke-linecap="square" stroke-linejoin="bevel"><text x="59" y="185" stroke="none" font-size="16" font-weight="700" transform="matrix(.25797 0 0 .25797 5.027 4.17)">Death Star Mission Debrief</text></g><g fill-rule="evenodd" stroke="#000" stroke-miterlimit="2" stroke-linecap="square"><path fill="none" stroke-width=".25797" d="M20.247 50.734H72.1"/></g><g fill-rule="evenodd" stroke="#000" stroke-linecap="square" stroke-linejoin="bevel"><text x="89.5" y="205" stroke="none" font-size="16" font-weight="400" transform="matrix(.25797 0 0 .25797 5.027 4.17)">Wednesday, May 27</text></g><g fill-rule="evenodd" stroke="#000" stroke-linecap="square" stroke-linejoin="bevel"><text x="94" y="224" stroke="none" font-size="16" font-weight="400" transform="matrix(.25797 0 0 .25797 5.027 4.17)">12:30pm – 2:30pm</text></g><g fill-rule="evenodd" stroke="#000" stroke-linecap="square" stroke-linejoin="bevel"><text x="128.5" y="243" stroke="none" font-size="16" font-weight="400" transform="matrix(.25797 0 0 .25797 5.027 4.17)">Alderaan</text></g><text x="539.202" y="234.858" stroke-width=".258" style="line-height:125%;text-align:center" font-size="3.225" letter-spacing="0" word-spacing="0" text-anchor="middle" transform="translate(-492.892 -136.05)"><tspan x="539.202" y="234.858" style="line-height:1.25em" font-size="4.127">We asked everyone invited to this</tspan><tspan x="539.202" y="240.017" style="line-height:1.25em" font-size="4.127">meeting if they wanted to keep it on</tspan><tspan x="539.202" y="245.177" style="line-height:1.25em" font-size="4.127">the calendar. No one said yes, so</tspan><tspan x="539.202" y="250.336" style="line-height:1.25em" font-size="4.127">we&apos;ve canceled this meeting and</tspan><tspan x="539.202" y="255.495" style="line-height:1.25em" font-weight="bold" font-size="4.127">saved 2 hours of your time.</tspan><tspan x="539.202" y="260.655" style="line-height:1.25em" font-size="4.127">Hooray!</tspan></text><text x="539.1" y="269.261" fill="#2bb673" stroke-width=".258" transform="translate(-492.892 -136.05)" word-spacing="0" text-anchor="middle" style="line-height:125%;text-align:center" font-size="4.127" letter-spacing="0"><tspan x="539.1" y="269.261" font-weight="bold">Reply to this message to continue</tspan><tspan x="539.1" y="274.481" font-weight="bold">discussions over email.</tspan></text><text x="539.292" y="215.943" stroke-width=".258" style="line-height:125%;text-align:center" font-size="3.225" letter-spacing="0" word-spacing="0" text-anchor="middle" transform="translate(-492.892 -136.05)"><tspan x="539.292" y="215.943" style="line-height:1.25em" font-size="4.127">You&apos;re receiving this email because</tspan><tspan x="539.292" y="221.103" style="line-height:1.25em" font-size="4.127">your colleagues are using <tspan fill="#8e68ad">Esper</tspan> to</tspan><tspan x="539.292" y="226.262" style="line-height:1.25em" font-size="4.127">cancel meetings no one wants to go to.</tspan></text></g></svg>