<svg xmlns="http://www.w3.org/2000/svg" viewBox="0 0 350 637.683"><g transform="translate(97.84 271.74)"><rect width="350" height="637.683" x="-97.841" y="-271.74" fill="#4d4d4d" ry="10.032" rx="10.032"/><path fill="#fff" d="M-81.194-248.482h316.707v556.585H-81.194z"/></g><path fill="#fefefe" fill-rule="evenodd" d="M22.9 31.362h304.2c2.154 0 3.9 1.747 3.9 3.9v501.15c0 2.154-1.746 3.9-3.9 3.9H22.9c-2.154 0-3.9-1.746-3.9-3.9V35.262c0-2.153 1.746-3.9 3.9-3.9"/><path fill="#d1d3d4" fill-rule="evenodd" d="M38.5 96.687h273c2.154 0 3.9 1.747 3.9 3.9v168.675c0 2.154-1.746 3.9-3.9 3.9h-273c-2.154 0-3.9-1.746-3.9-3.9V100.587c0-2.153 1.746-3.9 3.9-3.9m0 .975h273c1.616 0 2.925 1.31 2.925 2.925v168.675c0 1.616-1.31 2.925-2.925 2.925h-273c-1.615 0-2.925-1.31-2.925-2.925V100.587c0-1.615 1.31-2.925 2.925-2.925" stroke-linecap="square" stroke-linejoin="bevel"/><text x="117" y="63" fill-rule="evenodd" stroke="none" font-weight="400" font-size="16" font-family="Arial" transform="matrix(.975 0 0 .975 19 15.762)" stroke-linecap="square" stroke-linejoin="bevel">Hi everyone,</text><text x="53" y="119" fill="#d9534f" fill-rule="evenodd" stroke="none" font-size="20" font-weight="700" transform="matrix(.975 0 0 .975 19 15.762)" font-family="Arial" stroke-linecap="square" stroke-linejoin="bevel">This meeting has been</text><text x="115" y="144" fill="#d9534f" fill-rule="evenodd" stroke="none" font-size="20" font-weight="700" transform="matrix(.975 0 0 .975 19 15.762)" font-family="Arial" stroke-linecap="square" stroke-linejoin="bevel">canceled.</text><text x="59" y="185" fill-rule="evenodd" stroke="none" font-weight="700" font-size="16" font-family="Arial" transform="matrix(.975 0 0 .975 19 15.762)" stroke-linecap="square" stroke-linejoin="bevel">Death Star Mission Debrief</text><path fill="none" fill-rule="evenodd" stroke="#000" stroke-width=".975" stroke-miterlimit="2" d="M76.525 191.75H272.5" stroke-linecap="square"/><text x="89.5" y="205" fill-rule="evenodd" stroke="none" font-weight="400" font-size="16" font-family="Arial" transform="matrix(.975 0 0 .975 19 15.762)" stroke-linecap="square" stroke-linejoin="bevel">Wednesday, May 27</text><text x="94" y="224" fill-rule="evenodd" stroke="none" font-weight="400" font-size="16" font-family="Arial" transform="matrix(.975 0 0 .975 19 15.762)" stroke-linecap="square" stroke-linejoin="bevel">12:30pm – 2:30pm</text><text x="128.5" y="243" fill-rule="evenodd" stroke="none" font-weight="400" font-size="16" font-family="Arial" transform="matrix(.975 0 0 .975 19 15.762)" stroke-linecap="square" stroke-linejoin="bevel">Alderaan</text><text x="613.719" y="-14.539" stroke-width=".265" style="line-height:125%;-inkscape-font-specification:'Open Sans, Normal';text-align:center" font-size="3.307" font-family="Open Sans" letter-spacing="0" word-spacing="0" text-anchor="middle" transform="translate(-2086.552 427.02) scale(3.68504)"><tspan x="613.719" y="-14.539" style="line-height:1.25em;-inkscape-font-specification:Arial" font-size="4.233" font-family="Arial">We asked everyone invited to this</tspan><tspan x="613.719" y="-9.248" style="line-height:1.25em;-inkscape-font-specification:Arial" font-size="4.233" font-family="Arial">meeting if they wanted to keep it on</tspan><tspan x="613.719" y="-3.956" style="line-height:1.25em;-inkscape-font-specification:Arial" font-size="4.233" font-family="Arial">the calendar. No one said yes, so</tspan><tspan x="613.719" y="1.336" style="line-height:1.25em;-inkscape-font-specification:Arial" font-size="4.233" font-family="Arial">we&apos;ve canceled this meeting and</tspan><tspan x="613.719" y="6.627" style="line-height:1.25em;-inkscape-font-specification:Arial" font-weight="bold" font-size="4.233" font-family="Arial">saved 2 hours of your time.</tspan><tspan x="613.719" y="11.919" style="line-height:1.25em;-inkscape-font-specification:Arial" font-size="4.233" font-family="Arial">Hooray!</tspan></text><text x="613.615" y="20.746" fill="#2bb673" stroke-width=".265" letter-spacing="0" style="line-height:125%;-inkscape-font-specification:'Open Sans, Normal';text-align:center" word-spacing="0" text-anchor="middle" font-size="4.233" font-family="Open Sans" transform="translate(-2086.552 427.02) scale(3.68504)"><tspan x="613.615" y="20.746" font-weight="bold">Reply to this message to continue</tspan><tspan x="613.615" y="26.037" font-weight="bold">discussions over email.</tspan></text><text x="613.812" y="-33.939" stroke-width=".265" style="line-height:125%;-inkscape-font-specification:'Open Sans, Normal';text-align:center" font-size="3.307" font-family="Open Sans" letter-spacing="0" word-spacing="0" text-anchor="middle" transform="translate(-2086.552 427.02) scale(3.68504)"><tspan x="613.812" y="-33.939" style="line-height:1.25em;-inkscape-font-specification:Arial" font-size="4.233" font-family="Arial">You&apos;re receiving this email because</tspan><tspan x="613.812" y="-28.647" style="line-height:1.25em;-inkscape-font-specification:Arial" font-size="4.233" font-family="Arial">your colleagues are using <tspan fill="#8e68ad">Esper</tspan> to</tspan><tspan x="613.812" y="-23.356" style="line-height:1.25em;-inkscape-font-specification:Arial" font-size="4.233" font-family="Arial">cancel meetings no one wants to go to.</tspan></text></svg>