<svg xmlns="http://www.w3.org/2000/svg" viewBox="0 0 350 637.683"><g transform="matrix(3.7795 0 0 3.7795 -133.57 -199.388)"><path fill="#fefefe" fill-rule="evenodd" d="M39.678 61.404h82.815c.586 0 1.062.475 1.062 1.062v152.64c0 .587-.476 1.063-1.062 1.063H39.678c-.587 0-1.062-.477-1.062-1.063V62.467c0-.588.475-1.063 1.062-1.063" stroke-linecap="square" stroke-linejoin="bevel"/><rect width="92.604" height="168.72" x="35.341" y="52.755" fill="#4d4d4d" rx="2.654" ry="2.654"/><path fill="#fff" d="M39.745 58.908h83.795V206.17H39.745z"/><g fill-rule="evenodd" stroke-linecap="square" stroke-linejoin="bevel"><path fill="#d1d3d4" d="M43.353 63.13h76.445v11.413H43.353V63.13M44.414 102.413h74.322c.586 0 1.062.476 1.062 1.062v59.192c0 .586-.476 1.06-1.062 1.06H44.414c-.586 0-1.06-.474-1.06-1.06v-59.192c0-.586.474-1.062 1.06-1.062m0 .266h74.322c.44 0 .796.355.796.795v59.192c0 .44-.356.796-.796.796H44.414c-.44 0-.796-.356-.796-.796v-59.192c0-.44.357-.796.796-.796"/><path fill="#a25cc6" d="M65.65 189.21H97.5c3.52 0 6.372 2.852 6.372 6.37 0 3.52-2.852 6.37-6.37 6.37H65.648c-3.52 0-6.37-2.85-6.37-6.37 0-3.518 2.85-6.37 6.37-6.37"/><text x="95.5" y="59" stroke="none" font-size="14" font-weight="700" font-family="Arial" transform="translate(39.106 54.635) scale(.2654)">ACTION REQUIRED</text><text x="132" y="106" stroke="none" font-size="16" font-weight="400" font-family="Arial" transform="translate(39.106 54.635) scale(.2654)">Hi Leia,</text><text x="30.5" y="141" stroke="none" font-size="16" font-weight="400" font-family="Arial" transform="matrix(.2654 0 0 .2654 39.58 54.635)">Your colleagues are using</text><text x="220.5" y="141" fill="#8e68ad" stroke="none" font-size="16" font-weight="400" font-family="Arial" transform="matrix(.2654 0 0 .2654 39.314 54.635)">Esper</text><text x="266" y="141" stroke="none" font-size="16" font-weight="400" font-family="Arial" transform="matrix(.2654 0 0 .2654 39.58 54.635)">to</text><text x="26" y="160" stroke="none" font-size="16" font-weight="400" font-family="Arial" transform="matrix(.2654 0 0 .2654 37.987 54.635)">identify meetings that can be canceled.</text><text x="60.5" y="216" stroke="none" font-size="20" font-weight="700" font-family="Arial" transform="translate(39.106 54.635) scale(.2654)">Please confirm if you</text><text x="57" y="241" stroke="none" font-size="20" font-weight="700" font-family="Arial" transform="translate(39.106 54.635) scale(.2654)">would like to keep the</text><text x="44" y="266" stroke="none" font-size="20" font-weight="700" font-family="Arial" transform="translate(39.106 54.635) scale(.2654)">following meeting on</text><text x="246" y="266" stroke="none" font-size="20" font-weight="700" font-family="Arial" transform="translate(39.106 54.635) scale(.2654)">the</text><text x="116" y="291" stroke="none" font-size="20" font-weight="700" font-family="Arial" transform="matrix(.2654 0 0 .2654 39.127 54.635)">calendar:</text><text x="53.5" y="332" stroke="none" font-size="16" font-weight="700" font-family="Arial" transform="matrix(.2654 0 0 .2654 40.124 54.635)">Death Star Mission Debrief</text><text x="87.5" y="352" stroke="none" font-size="16" font-weight="400" font-family="Arial" transform="matrix(.2654 0 0 .2654 39.248 54.635)">Wednesday, May 27</text><text x="94" y="371" stroke="none" font-size="16" font-weight="400" font-family="Arial" transform="matrix(.2654 0 0 .2654 38.81 54.635)">12:30pm – 2:30pm</text><text x="128.504" y="390" stroke="none" font-size="16" font-weight="400" font-family="Arial" transform="matrix(.2654 0 0 .2654 39.106 54.635)">Alderaan</text><text x="17" y="442" fill="#2bb673" stroke="none" font-size="16" font-weight="700" font-family="Arial" transform="translate(39.106 54.635) scale(.2654)">If you do not respond, we will assume</text><text x="44.5" y="462" fill="#2bb673" stroke="none" font-size="16" font-weight="700" font-family="Arial" transform="translate(39.106 54.635) scale(.2654)">you are OK with canceling</text><text x="247.5" y="462" fill="#2bb673" stroke="none" font-size="16" font-weight="700" font-family="Arial" transform="translate(39.106 54.635) scale(.2654)">this</text><text x="127.5" y="482" fill="#2bb673" stroke="none" font-size="16" font-weight="700" font-family="Arial" transform="translate(39.106 54.635) scale(.2654)">meeting!</text><text x="92" y="536" fill="#fff" stroke="none" font-size="16" font-weight="700" font-family="Arial" transform="translate(39.106 54.635) scale(.2654)">Keep this Meeting</text></g></g></svg>