<svg viewBox="0 0 16 20" xmlns="http://www.w3.org/2000/svg"><g fill-rule="evenodd"><path d="m15.785.281c-.344.444-.844 1.07-1.469 1.802-1.256 1.455-3.034 3.332-5.072 4.856-1.016.758-2.101 1.427-3.188 1.875-1.085.451-2.179.663-3.117.609-.469-.024-.898-.111-1.265-.226-.368-.118-.68-.252-.926-.393-.129-.061-.232-.133-.325-.193-.096-.055-.172-.11-.235-.157-.125-.087-.19-.133-.19-.133 0 0 .056.055.174.158.055.053.126.117.211.186.092.066.187.152.309.235.23.172.535.351.903.518.367.17.804.316 1.302.403.987.18 2.19.095 3.402-.24 1.216-.338 2.445-.9 3.607-1.57 2.326-1.336 4.403-3.058 5.879-4.414.075-.066.149-.133.215-.196v-3.399c-.065.08-.13.177-.216.281"/><path d="m14.684 7.127c-1.252 1.459-3.035 3.336-5.073 4.864-1.018.76-2.101 1.422-3.189 1.869-1.084.452-2.178.67-3.115.61-.469-.024-.899-.103-1.266-.221-.367-.123-.68-.258-.93-.397-.125-.064-.227-.134-.321-.194-.096-.056-.171-.113-.234-.153-.126-.091-.191-.138-.191-.138 0 0 .058.053.176.156.054.054.125.118.21.185.092.071.188.157.305.235.235.173.539.351.906.518.367.172.805.313 1.302.404.988.182 2.191.095 3.402-.242 1.215-.338 2.445-.899 3.605-1.569 2.255-1.285 4.256-2.94 5.729-4.274v-3.253c-.331.418-.777.971-1.316 1.598"/><path d="m14.84 12.173c-1.266 1.455-3.043 3.337-5.083 4.86-1.021.758-2.102 1.423-3.193 1.875-1.08.45-2.173.663-3.111.611-.468-.031-.898-.111-1.265-.227-.367-.124-.681-.257-.929-.398-.125-.065-.229-.135-.324-.191-.098-.053-.17-.114-.233-.155-.124-.092-.194-.14-.194-.14 0 0 .062.056.177.163.058.049.126.117.215.181.086.07.186.155.305.233.234.172.539.351.904.523.369.172.806.315 1.298.401.992.18 2.194.094 3.406-.243 1.212-.335 2.443-.898 3.602-1.563 2.177-1.25 4.119-2.836 5.584-4.144v-3.208c-.311.397-.703.882-1.159 1.421"/></g></svg>