<svg xmlns="http://www.w3.org/2000/svg" viewBox="0 0 80 100" enable-background="new 0 0 80 100"><g fill="#fff"><path d="m78.94 1.407c-1.714 2.212-4.215 5.354-7.34 9-6.29 7.282-15.173 16.665-25.387 24.288-5.081 3.799-10.497 7.115-15.933 9.366-5.418 2.252-10.883 3.314-15.574 3.056-2.344-.132-4.488-.553-6.328-1.129-1.835-.61-3.4-1.282-4.633-1.986-.637-.31-1.147-.664-1.622-.955-.479-.271-.855-.558-1.167-.775-.624-.453-.956-.691-.956-.691s.3.284.875.794c.277.263.629.589 1.066.934.445.343.93.764 1.529 1.157 1.159.868 2.682 1.761 4.519 2.614 1.835.844 4.03 1.566 6.503 2 4.942.909 10.958.479 17.01-1.215 6.073-1.676 12.208-4.484 18.02-7.819 11.64-6.681 21.998-15.293 29.42-22.07.358-.329.702-.652 1.055-.976v-17.01c-.311.413-.665.881-1.06 1.407"/><path d="m73.42 35.643c-6.272 7.291-15.178 16.682-25.358 24.287-5.089 3.811-10.513 7.135-15.949 9.381-5.418 2.254-10.882 3.306-15.57 3.055-2.344-.146-4.493-.555-6.328-1.138-1.835-.612-3.405-1.275-4.639-1.989-.635-.312-1.146-.658-1.622-.955-.479-.266-.854-.56-1.162-.774-.624-.443-.961-.685-.961-.685s.298.277.875.805c.282.24.631.568 1.065.916.446.346.936.771 1.53 1.174 1.165.857 2.688 1.75 4.523 2.595 1.835.862 4.02 1.58 6.499 2 4.947.907 10.958.48 17.02-1.215 6.068-1.676 12.218-4.484 18.03-7.809 11.248-6.452 21.262-14.718 28.632-21.377v-16.283c-1.655 2.114-3.867 4.866-6.579 8.01"/><path d="m74.16 60.858c-6.293 7.266-15.177 16.662-25.375 24.286-5.077 3.798-10.512 7.108-15.948 9.35-5.419 2.254-10.868 3.332-15.565 3.055-2.342-.114-4.482-.535-6.325-1.129-1.836-.592-3.414-1.282-4.642-1.969-.627-.309-1.151-.685-1.626-.954-.479-.293-.854-.558-1.162-.775-.621-.459-.961-.695-.961-.695s.312.289.875.79c.287.271.633.6 1.079.942.434.33.923.762 1.523 1.152 1.167.866 2.685 1.75 4.517 2.62 1.839.834 4.04 1.547 6.5 2 4.954.906 10.958.479 17.02-1.215 6.06-1.677 12.219-4.484 18.02-7.83 10.874-6.231 20.614-14.174 27.911-20.692v-16.03c-1.554 1.958-3.524 4.375-5.837 7.087"/></g></svg>