<svg xmlns="http://www.w3.org/2000/svg" enable-background="new 0 0 15.644824 15.268" viewBox="0 0 15.644824 15.268">
  <path fill="#fff"
     d="M 9.0536766,0 0.03833796,1.62503 0,13.60525 9.0536766,15.268 l 0,-15.268 z m 0.5023497,3.06678 0,1.29397 0.3165967,0 0.994311,0.83131 -0.3302,0.37547 -0.664111,-0.30176 -0.3165967,0 0,2.02807 C 9.9606698,7.6434 10.349811,7.80871 10.730155,8.11217 L 10.569012,8.36545 C 10.110712,8.19433 9.5560263,8.00025 9.5560263,8.00025 l 0,2.11081 0.6986147,-0.005 c 0,0 1.125859,-1.17667 1.484047,-1.73634 l 0.271952,0.24301 c -0.210188,0.44656 -1.468503,2.18763 -1.868415,2.38239 -0.104777,0.051 -0.4664859,0.11402 -0.5861987,0.14 l 0.013109,1.09955 6.0756887,0 0,-0.0716 0,-9.09647 -6.0887977,0 z M 5.73139,3.80114 l 0,1.16522 -1.9532535,0.18427 0,1.52536 1.8665604,-0.082 0,1.22174 -1.8665604,-0.006 0,1.43037 2.1370277,0.23745 0,1.18724 -3.2637903,-0.37163 -0.00111,-6.13913 3.0811292,-0.35321 z m 6.795575,0.55961 2.131339,0 0,2.09523 -0.894139,0.81387 -0.386347,-0.29891 0.448554,-0.51496 0,-1.19021 -1.242519,0 C 11.863982,5.80197 11.272777,6.68948 10.922215,7.1635 L 10.647419,6.93297 c 0.533718,-1.10917 0.978992,-1.8052 1.879546,-2.57222 z m -0.44237,2.68575 c 0.498915,0.10405 2.219322,1.36357 2.573709,1.88944 l 0,2.16448 -2.194906,0 -0.279743,-0.30967 -0.369033,-0.71073 0.169553,-0.25328 0.638511,0.55763 1.151991,0 0,-1.43643 C 13.236288,8.3326 12.610734,7.80671 12.004333,7.26107 l 0.08026,-0.21457 z" />
</svg>
