<svg viewBox="0 0 32 32" xmlns="http://www.w3.org/2000/svg"><g fill-rule="evenodd"><path d="m16 0c-8.835 0-16 7.345-16 16.405 0 7.248 4.585 13.398 10.942 15.567.8.152 1.093-.356 1.093-.789 0-.391-.015-1.683-.022-3.054-4.451.992-5.391-1.936-5.391-1.936-.728-1.896-1.777-2.4-1.777-2.4-1.452-1.018.109-.997.109-.997 1.607.116 2.453 1.691 2.453 1.691 1.427 2.508 3.743 1.783 4.656 1.364.144-1.06.558-1.784 1.016-2.194-3.554-.415-7.29-1.821-7.29-8.107 0-1.791.625-3.255 1.649-4.403-.166-.413-.714-2.082.155-4.341 0 0 1.344-.441 4.401 1.682 1.276-.363 2.645-.546 4-.552 1.36.006 2.73.189 4.01.552 3.054-2.122 4.396-1.682 4.396-1.682.871 2.26.323 3.928.157 4.341 1.026 1.149 1.647 2.612 1.647 4.403 0 6.301-3.743 7.688-7.306 8.094.574.509 1.085 1.507 1.085 3.038 0 2.195-.019 3.962-.019 4.502 0 .437.288.948 1.099.787 6.354-2.172 10.933-8.319 10.933-15.565 0-9.06-7.164-16.405-16-16.405" /></g></svg>