<svg xmlns="http://www.w3.org/2000/svg" viewBox="0 0 122.602 117.358"><path id="exchange" class="c3" d="M46.607 0L.197 8.366 0 70.04l37.236 6.838a46.63 46.414 0 0 1 9.372-26.26zm2.58 15.787h.006v6.662h1.63l5.12 4.28-1.7 1.93-3.42-1.552h-1.63v10.44c2.083 1.8 4.087 2.65 6.044 4.213l-.125.198a46.63 46.414 0 0 1 6.872-4.413c-.06-.055-.123-.11-.185-.165l.412-1.105c.337.07.787.25 1.312.503a46.63 46.414 0 0 1 6.888-2.664l.765-.88V27.11H64.78c-3.705 2.76-6.75 7.33-8.553 9.77l-1.415-1.187c2.748-5.71 5.04-9.292 9.676-13.24H75.46v10.44a46.63 46.414 0 0 1 5.07-.65V15.787zm-19.682 3.78v6l-10.056.948v7.853l9.608-.422v6.29l-9.61-.032v7.363L30.45 48.79v6.112l-16.8-1.913-.007-31.605zm19.69 21.618v6.305a46.63 46.414 0 0 1 4.776-4.586c-2.26-.837-4.776-1.72-4.776-1.72z"/><path id="google" class="c2" d="M83.783 39.72c-21.442 0-38.818 17.377-38.818 38.82 0 21.442 17.376 38.818 38.818 38.818 21.443 0 38.82-17.378 38.82-38.818 0-21.44-17.38-38.82-38.82-38.82zm.578 67.934c-16.087 0-29.113-13.026-29.113-29.114S68.273 49.426 84.36 49.426c7.857 0 14.436 2.865 19.5 7.613l-7.9 7.612c-2.17-2.076-5.944-4.488-11.6-4.488-9.947 0-18.045 8.234-18.045 18.378S74.428 96.92 84.36 96.92c11.525 0 15.846-8.28 16.513-12.555H84.36v-9.98h27.49c.244 1.457.458 2.912.458 4.824.014 16.633-11.132 28.446-27.947 28.446z"/></svg>