<?xml version="1.0" encoding="UTF-8"?>
<svg width="233px" height="105px" viewBox="0 0 233 105" version="1.1" xmlns="http://www.w3.org/2000/svg" xmlns:xlink="http://www.w3.org/1999/xlink">
    <!-- Generator: Sketch 41.2 (35397) - http://www.bohemiancoding.com/sketch -->
    <title>Group 8</title>
    <desc>Created with Sketch.</desc>
    <defs>
        <rect id="path-1" x="0" y="0" width="95" height="55" rx="3"></rect>
        <mask id="mask-2" maskContentUnits="userSpaceOnUse" maskUnits="objectBoundingBox" x="0" y="0" width="95" height="55" fill="white">
            <use xlink:href="#path-1"></use>
        </mask>
    </defs>
    <g id="Page-1" stroke="none" stroke-width="1" fill="none" fill-rule="evenodd">
        <g id="Group-8" transform="translate(0.000000, 1.000000)">
            <g id="Group-6" transform="translate(0.000000, 38.000000)" stroke="#DB3434">
                <use id="Rectangle-9-Copy" mask="url(#mask-2)" stroke-width="8" fill="#FFFFFF" xlink:href="#path-1"></use>
                <path d="M46.5,34.5 L10,4" id="Line-Copy-17" stroke-width="3" stroke-linecap="square"></path>
                <path d="M83.5,34.5 L47,4" id="Line-Copy-18" stroke-width="3" stroke-linecap="square" transform="translate(65.500000, 19.500000) scale(-1, 1) translate(-65.500000, -19.500000) "></path>
            </g>
            <path d="M163.660156,103.601562 C163.660156,103.601562 165.575056,84.0110988 170.861328,70.1953125 C176.147601,56.3795262 181.358682,50.6262389 183.554044,50.6262389 C188.153273,50.6262389 211.990234,50.6262389 211.990234,50.6262389 C211.990234,50.6262389 221.050532,60.1141665 225.503906,72.7871094 C229.95728,85.4600522 232.785156,99.4928911 232.785156,103.601562 L163.660156,103.601562 Z" id="Path-4" fill="#252165"></path>
            <circle id="Oval-5" fill="#F7CA9F" cx="198.5" cy="27.5" r="27.5"></circle>
            <rect id="Rectangle-11" fill="#A25CC6" x="117" y="61" width="12" height="14"></rect>
            <polygon id="Triangle" fill="#A25CC6" transform="translate(133.500000, 68.000000) scale(-1, 1) rotate(-90.000000) translate(-133.500000, -68.000000) " points="133.5 59 147 77 120 77"></polygon>
            <path d="M168.007812,30.6445312 C168.007812,30.6445312 214.226562,11.4094859 214.226562,5.80206401 C214.226562,0.194642137 197.047852,-0.866210937 191.283203,0.919921875 C188.759103,1.70199519 185.072266,2.15820313 178.211914,8.07910156 C171.351562,14 168.007812,30.6445312 168.007812,30.6445312 Z" id="Path-5" stroke="#55300F" fill="#55300E"></path>
            <path d="M208.932617,10.5703125 C209.977539,11.7412109 225.054688,29.0595703 227.432617,30.2011719 C228.631556,30.7767611 227.796475,20.711241 224.167969,14.140625 C220.539462,7.570009 214.24707,4.71582031 214.24707,4.71582031" id="Path-6" stroke="#55300F" fill="#55300F"></path>
            <circle id="Oval-6" fill="#3A1C01" cx="187.5" cy="30.5" r="1.5"></circle>
            <circle id="Oval-6-Copy" fill="#3A1C01" cx="208.5" cy="30.5" r="1.5"></circle>
            <path d="M193.191406,39 C193.191406,39.9090909 195.219238,42 198.651855,42 C202.084473,42 204.303711,40.3002292 204.303711,39" id="Path-7" stroke="#BC3D39"></path>
        </g>
    </g>
</svg>