<svg xmlns="http://www.w3.org/2000/svg" viewBox="0 0 32 32"><path id="pie" class="c3" d="M14 4C6.268 4 0 10.268 0 18c0 2.66.756 5.136 2.043 7.254-.543-3.21-.058-7.574 4.26-7.254 4.93-.427 5.54 5.528 4.043 9 1.75.95 4.33 2.554 4.86 4.94C22.374 31.325 28 25.324 28 18c0-2.25-.533-4.378-1.477-6.262L14 18V4z"/><path id="slice" class="c2" d="M28.524 8.238C26.224 3.65 21.48.5 16 .5v14z"/><path id="person" class="c1" d="M7.346 28.39v-.78c1.043-.588 1.893-2.053 1.893-3.517 0-2.353 0-4.26-2.84-4.26s-2.84 1.907-2.84 4.26c0 1.465.85 2.93 1.893 3.517v.78c-3.21.263-5.68 1.84-5.68 3.747h13.252c0-1.907-2.47-3.485-5.68-3.747z"/></svg>