<svg xmlns="http://www.w3.org/2000/svg" viewBox="0 0 350 637.681"><defs><filter id="a" width="1.24" height="1.24" x="-.12" y="-.12" color-interpolation-filters="sRGB"><feGaussianBlur stdDeviation=".625"/></filter><filter id="b" width="1.24" height="1.24" x="-.12" y="-.12" color-interpolation-filters="sRGB"><feGaussianBlur stdDeviation=".625"/></filter><filter id="c" width="1.24" height="1.24" x="-.12" y="-.12" color-interpolation-filters="sRGB"><feGaussianBlur stdDeviation=".625"/></filter><filter id="d" width="1.24" height="1.24" x="-.12" y="-.12" color-interpolation-filters="sRGB"><feGaussianBlur stdDeviation=".625"/></filter><filter id="e" width="1.24" height="1.24" x="-.12" y="-.12" color-interpolation-filters="sRGB"><feGaussianBlur stdDeviation=".625"/></filter><filter id="f" width="1.24" height="1.24" x="-.12" y="-.12" color-interpolation-filters="sRGB"><feGaussianBlur stdDeviation=".625"/></filter><filter id="g" width="1.24" height="1.24" x="-.12" y="-.12" color-interpolation-filters="sRGB"><feGaussianBlur stdDeviation=".625"/></filter><filter id="h" width="1.24" height="1.24" x="-.12" y="-.12" color-interpolation-filters="sRGB"><feGaussianBlur stdDeviation=".625"/></filter><filter id="i" width="1.24" height="1.24" x="-.12" y="-.12" color-interpolation-filters="sRGB"><feGaussianBlur stdDeviation=".625"/></filter><filter id="j" width="1.24" height="1.24" x="-.12" y="-.12" color-interpolation-filters="sRGB"><feGaussianBlur stdDeviation=".625"/></filter></defs><path fill="#fefefe" fill-rule="evenodd" d="M8.63 15.68l329.19-1.832 1.83 587.975H12.29"/><path fill="#d1d3d4" fill-rule="evenodd" d="M12.29 87.297h327.36v1.08H12.29v-1.08M12.29 213.704h327.36v1.08H12.29v-1.08"/><text x="495.363" y="-27.403" fill="#333" fill-opacity=".498" fill-rule="evenodd" stroke-opacity=".498" stroke-width="1.08" font-family="Segoe UI" font-weight="400" font-size="15.126" stroke-linecap="square" stroke-linejoin="bevel" transform="translate(-465.786 55.278)">9:00 am to 10:30 am • Scarif •</text><text x="495.363" y="66.591" fill="#58595b" fill-rule="evenodd" stroke-width="1.08" font-weight="700" font-family="Segoe UI" font-size="17.286" stroke-linecap="square" stroke-linejoin="bevel" transform="translate(-465.786 55.278)">Sync up with the droids</text><text x="495.363" y="92.521" fill="#333" fill-opacity=".498" fill-rule="evenodd" stroke-opacity=".498" stroke-width="1.08" font-family="Segoe UI" font-weight="400" font-size="15.126" stroke-linecap="square" stroke-linejoin="bevel" transform="translate(-465.786 55.278)">11:30 am to 12:00pm • Tantive IV •</text><g transform="matrix(1.0804 0 0 1.0804 -447.014 -5.663)"><circle cx="514.831" cy="51.695" r="6.25" opacity=".16" filter="url(#a)"/><circle cx="514.25" cy="51.251" r="6.25" fill="#ccc"/><circle cx="514.25" cy="51.251" r="4.025"/></g><text x="454.614" y="6.987" fill-rule="evenodd" stroke-opacity=".498" stroke-width=".88" font-weight="400" font-family="Segoe UI" font-size="11.739" stroke-linecap="square" stroke-linejoin="bevel" transform="translate(-396.2 62.09) scale(1.0804)"><tspan font-weight="bold">Keep</tspan></text><g transform="matrix(1.0804 0 0 1.0804 -317 -5.663)"><circle cx="514.831" cy="51.695" r="6.25" opacity=".16" filter="url(#b)"/><circle cx="514.25" cy="51.251" r="6.25" fill="#ccc"/></g><text x="570.122" y="7.064" fill-rule="evenodd" stroke-opacity=".498" stroke-width=".88" font-size="11.739" font-weight="400" stroke-linecap="square" stroke-linejoin="bevel" font-family="Segoe UI" transform="translate(-396.2 62.09) scale(1.0804)">Cancel</text><g transform="matrix(1.0804 0 0 1.0804 -447.014 117.372)"><circle cx="514.831" cy="51.695" r="6.25" opacity=".16" filter="url(#c)"/><circle cx="514.25" cy="51.251" r="6.25" fill="#ccc"/><circle cx="514.25" cy="51.251" r="4.025"/></g><text x="454.614" y="6.987" fill-rule="evenodd" stroke-opacity=".498" stroke-width=".88" font-weight="400" font-family="Segoe UI" font-size="11.739" stroke-linecap="square" stroke-linejoin="bevel" transform="translate(-396.2 185.125) scale(1.0804)"><tspan font-weight="bold">Keep</tspan></text><g transform="matrix(1.0804 0 0 1.0804 -317 117.372)"><circle cx="514.831" cy="51.695" r="6.25" opacity=".16" filter="url(#d)"/><circle cx="514.25" cy="51.251" r="6.25" fill="#ccc"/></g><text x="570.122" y="7.064" fill-rule="evenodd" stroke-opacity=".498" stroke-width=".88" font-size="11.739" font-weight="400" stroke-linecap="square" stroke-linejoin="bevel" font-family="Segoe UI" transform="translate(-396.2 185.125) scale(1.0804)">Cancel</text><path fill="#333" fill-opacity=".498" d="M244.472 26.14q0 .908-.553 1.435-.554.526-1.47.526h-6.62q-.917 0-1.47-.525-.552-.527-.552-1.436 0-.402.026-.785.027-.382.106-.825.08-.443.2-.822.122-.38.326-.738.205-.36.47-.614t.648-.405q.382-.15.844-.15.068 0 .318.162.25.163.564.364.315.2.818.363.504.162 1.012.162.507 0 1.01-.163.504-.164.82-.364.313-.2.563-.364.25-.163.318-.163.463 0 .846.15.382.152.647.406t.47.614q.204.36.325.738.122.38.2.822.08.443.107.825.027.383.027.784zm-2.424-6.764q0 1.204-.852 2.056-.852.852-2.056.852-1.205 0-2.057-.852-.852-.852-.852-2.056 0-1.205.853-2.057.852-.853 2.057-.853 1.204 0 2.056.852.852.85.852 2.056zM277.08 146.215q0 .91-.554 1.435-.552.526-1.47.526h-6.62q-.915 0-1.468-.526-.553-.526-.553-1.435 0-.402.027-.784.026-.382.106-.825.08-.443.2-.822.122-.378.326-.738.205-.36.47-.614.265-.252.647-.404.384-.15.846-.15.068 0 .318.162l.564.363q.314.202.818.365.504.163 1.01.163.51 0 1.012-.163.504-.163.818-.364.315-.2.565-.362.25-.163.32-.163.46 0 .843.15.383.153.648.406.266.255.47.615.205.36.326.738.12.38.2.822.08.443.107.826.026.383.026.785zm-2.424-6.764q0 1.205-.852 2.057-.852.853-2.057.853-1.204 0-2.056-.853-.85-.852-.85-2.056 0-1.203.85-2.055.853-.852 2.057-.852 1.205 0 2.057.852.852.852.852 2.056z"/><path fill="#d1d3d4" fill-rule="evenodd" d="M12.29 339.03h327.36v1.08H12.29v-1.08"/><text x="495.363" y="191.918" fill="#58595b" fill-rule="evenodd" stroke-width="1.08" font-weight="700" font-family="Segoe UI" font-size="17.286" stroke-linecap="square" stroke-linejoin="bevel" transform="translate(-465.786 55.278)">Death Star Mission Debrief</text><text x="495.363" y="217.847" fill="#333" fill-opacity=".498" fill-rule="evenodd" stroke-opacity=".498" stroke-width="1.08" font-family="Segoe UI" font-weight="400" font-size="15.126" stroke-linecap="square" stroke-linejoin="bevel" transform="translate(-465.786 55.278)">12:30 am to 2:30pm • Alderaan •</text><g transform="matrix(1.0804 0 0 1.0804 -447.014 242.698)"><circle cx="514.831" cy="51.695" r="6.25" opacity=".16" filter="url(#e)"/><circle cx="514.25" cy="51.251" r="6.25" fill="#ccc"/></g><text x="454.614" y="6.987" fill-rule="evenodd" stroke-opacity=".498" stroke-width=".88" font-weight="400" font-family="Segoe UI" font-size="11.739" stroke-linecap="square" stroke-linejoin="bevel" transform="translate(-396.2 310.452) scale(1.0804)">Keep</text><g transform="matrix(1.0804 0 0 1.0804 -317 242.698)"><circle cx="514.831" cy="51.695" r="6.25" opacity=".16" filter="url(#f)"/><circle cx="514.25" cy="51.251" r="6.25" fill="#ccc"/><circle cx="514.25" cy="51.251" r="4.025"/></g><text x="570.122" y="7.064" fill-rule="evenodd" stroke-opacity=".498" stroke-width=".88" font-size="11.739" font-weight="400" stroke-linecap="square" stroke-linejoin="bevel" font-family="Segoe UI" transform="translate(-396.2 310.452) scale(1.0804)"><tspan font-weight="bold">Cancel</tspan></text><path fill="#333" fill-opacity=".498" d="M265 271.54q0 .91-.554 1.436-.552.526-1.47.526h-6.62q-.915 0-1.468-.526-.553-.526-.553-1.435 0-.4.026-.783.027-.383.107-.826.08-.442.2-.82.122-.38.326-.74.205-.36.47-.612.265-.254.647-.406.383-.15.845-.15.068 0 .318.162.25.163.564.363.315.2.818.364.504.164 1.012.164.507 0 1.01-.163.504-.162.82-.363.313-.2.563-.363.25-.163.318-.163.462 0 .845.152.382.152.647.406.265.253.47.613.204.36.325.74.122.378.2.82.08.444.107.827.026.382.026.784zm-2.424-6.763q0 1.204-.852 2.057-.852.852-2.057.852-1.204 0-2.056-.852-.85-.853-.85-2.057t.85-2.056q.853-.85 2.057-.85 1.205 0 2.057.85.852.853.852 2.057z"/><path fill="#d1d3d4" fill-rule="evenodd" d="M12.29 465.436h327.36v1.08H12.29v-1.08"/><text x="495.363" y="318.324" fill="#58595b" fill-rule="evenodd" stroke-width="1.08" font-weight="700" font-family="Segoe UI" font-size="17.286" stroke-linecap="square" stroke-linejoin="bevel" transform="translate(-465.786 55.278)">Organa Family Reunion</text><text x="495.363" y="344.254" fill="#333" fill-opacity=".498" fill-rule="evenodd" stroke-opacity=".498" stroke-width="1.08" font-family="Segoe UI" font-weight="400" font-size="15.126" stroke-linecap="square" stroke-linejoin="bevel" transform="translate(-465.786 55.278)">5:30 pm to 7:00 pm • Bantha Burger •</text><g transform="matrix(1.0804 0 0 1.0804 -447.014 369.104)"><circle cx="514.831" cy="51.695" r="6.25" opacity=".16" filter="url(#g)"/><circle cx="514.25" cy="51.251" r="6.25" fill="#ccc"/><circle cx="514.25" cy="51.251" r="4.025"/></g><text x="454.614" y="6.987" fill-rule="evenodd" stroke-opacity=".498" stroke-width=".88" font-weight="400" font-family="Segoe UI" font-size="11.739" stroke-linecap="square" stroke-linejoin="bevel" transform="translate(-396.2 436.858) scale(1.0804)"><tspan font-weight="bold">Keep</tspan></text><g transform="matrix(1.0804 0 0 1.0804 -317 369.104)"><circle cx="514.831" cy="51.695" r="6.25" opacity=".16" filter="url(#h)"/><circle cx="514.25" cy="51.251" r="6.25" fill="#ccc"/></g><text x="570.122" y="7.064" fill-rule="evenodd" stroke-opacity=".498" stroke-width=".88" font-size="11.739" font-weight="400" stroke-linecap="square" stroke-linejoin="bevel" font-family="Segoe UI" transform="translate(-396.2 436.858) scale(1.0804)">Cancel</text><path fill="#333" fill-opacity=".498" d="M295.79 397.947q0 .91-.552 1.436-.553.526-1.47.526h-6.62q-.916 0-1.47-.527-.552-.527-.552-1.436 0-.4.026-.784.026-.382.106-.825.08-.443.2-.822.122-.38.327-.738.204-.36.47-.614.264-.254.647-.405.382-.153.844-.153.068 0 .318.163t.565.364q.313.2.817.363.503.163 1.01.163.508 0 1.012-.163.503-.163.817-.363.314-.2.564-.364.25-.163.32-.163.46 0 .844.152.382.15.647.404.266.254.47.614.205.36.327.738.12.38.2.822.08.443.106.825.026.383.026.784zm-2.423-6.763q0 1.204-.852 2.056-.852.852-2.056.852-1.206 0-2.058-.852-.852-.852-.852-2.056 0-1.205.852-2.057.852-.852 2.057-.852 1.203 0 2.055.852.852.852.852 2.057z"/><path fill="#d1d3d4" fill-rule="evenodd" d="M12.29 590.762h327.36v1.08H12.29v-1.08"/><text x="495.363" y="443.65" fill="#58595b" fill-rule="evenodd" stroke-width="1.08" font-weight="700" font-family="Segoe UI" font-size="17.286" stroke-linecap="square" stroke-linejoin="bevel" transform="translate(-465.786 55.278)">Drinks with Mon Mothma</text><text x="495.363" y="469.58" fill="#333" fill-opacity=".498" fill-rule="evenodd" stroke-opacity=".498" stroke-width="1.08" font-family="Segoe UI" font-weight="400" font-size="15.126" stroke-linecap="square" stroke-linejoin="bevel" transform="translate(-465.786 55.278)">9:00 pm to 2:00am • Mos Eiseley •</text><g><g transform="matrix(1.0804 0 0 1.0804 -447.014 494.43)"><circle cx="514.831" cy="51.695" r="6.25" opacity=".16" filter="url(#i)"/><circle cx="514.25" cy="51.251" r="6.25" fill="#ccc"/><circle cx="514.25" cy="51.251" r="4.025"/></g><text x="454.614" y="6.987" fill-rule="evenodd" stroke-opacity=".498" stroke-width=".88" font-weight="400" font-family="Segoe UI" font-size="11.739" stroke-linecap="square" stroke-linejoin="bevel" transform="translate(-396.2 562.184) scale(1.0804)"><tspan font-weight="bold">Keep</tspan></text><g><g transform="matrix(1.0804 0 0 1.0804 -317 494.43)"><circle cx="514.831" cy="51.695" r="6.25" opacity=".16" filter="url(#j)"/><circle cx="514.25" cy="51.251" r="6.25" fill="#ccc"/></g><text x="570.122" y="7.064" fill-rule="evenodd" stroke-opacity=".498" stroke-width=".88" font-size="11.739" font-weight="400" stroke-linecap="square" stroke-linejoin="bevel" font-family="Segoe UI" transform="translate(-396.2 562.184) scale(1.0804)">Cancel</text></g></g><path fill="#333" fill-opacity=".498" d="M273.643 523.273q0 .91-.553 1.436-.553.525-1.47.525H265q-.916 0-1.47-.526-.552-.528-.552-1.437 0-.4.026-.784.026-.383.106-.826.08-.443.2-.822.122-.38.326-.738.205-.36.47-.614t.648-.405q.382-.152.844-.152.068 0 .318.163t.565.364q.315.2.82.363.502.163 1.01.163.507 0 1.01-.163.505-.162.82-.363.313-.2.563-.364.25-.163.318-.163.463 0 .846.152.382.15.647.405.265.254.47.614.204.36.325.738.122.38.2.822.08.443.107.825.026.382.026.783zm-2.424-6.763q0 1.204-.853 2.056-.852.852-2.057.852-1.204 0-2.056-.852-.852-.852-.852-2.056 0-1.205.852-2.057.852-.852 2.056-.852 1.205 0 2.057.853.852.852.852 2.057z"/><text x="714.173" y="-27.358" fill="#333" fill-opacity=".498" fill-rule="evenodd" stroke-opacity=".498" stroke-width="1.08" font-family="Segoe UI" font-weight="400" font-size="15.126" stroke-linecap="square" stroke-linejoin="bevel" transform="translate(-465.786 55.278)">4</text><path fill="#4d4d4d" d="M10.032 0C4.475 0 0 4.475 0 10.032v617.616c0 5.557 4.475 10.032 10.032 10.032h329.935c5.558 0 10.033-4.475 10.033-10.032V10.032C350 4.475 345.525 0 339.967 0zm6.614 23.26H333.35V579.84H16.647z"/><text x="746.781" y="92.718" fill="#333" fill-opacity=".498" fill-rule="evenodd" stroke-opacity=".498" stroke-width="1.08" font-family="Segoe UI" font-weight="400" font-size="15.126" stroke-linecap="square" stroke-linejoin="bevel" transform="translate(-465.786 55.278)">3</text><text x="734.701" y="218.044" fill="#333" fill-opacity=".498" fill-rule="evenodd" stroke-opacity=".498" stroke-width="1.08" font-family="Segoe UI" font-weight="400" font-size="15.126" stroke-linecap="square" stroke-linejoin="bevel" transform="translate(-465.786 55.278)">12</text><text x="765.492" y="344.45" fill="#333" fill-opacity=".498" fill-rule="evenodd" stroke-opacity=".498" stroke-width="1.08" font-family="Segoe UI" font-weight="400" font-size="15.126" stroke-linecap="square" stroke-linejoin="bevel" transform="translate(-465.786 55.278)">6</text><text x="743.344" y="469.776" fill="#333" fill-opacity=".498" fill-rule="evenodd" stroke-opacity=".498" stroke-width="1.08" font-family="Segoe UI" font-weight="400" font-size="15.126" stroke-linecap="square" stroke-linejoin="bevel" transform="translate(-465.786 55.278)">2</text></svg>