<svg xmlns="http://www.w3.org/2000/svg" viewBox="0 0 300 250"><path d="M33.6 233.6h-.8c-.4 0-.7-.2-.9-.5-.2-.3-.3-.7-.2-1 .1-.4.2-.9.3-1.3.3-1 .5-2.1.7-3.1.1-.8.2-1.5.4-2.3l.3-1.8c.1-.8.3-1.6.5-2.4.2-.8.3-1.7.5-2.5.1-.8.2-1.7.4-2.5.1-.5.1-.9.2-1.4 0-.3.1-.7.2-1l.2-1.1c.2-1.2.5-2.4.8-3.7.1-.5.3-1.1.4-1.6l.5-1.8c.3-1.3.6-2.6 1-3.8.1-.5.3-.9.4-1.3.1-.3.2-.5.3-.8.1-.4.3-.9.4-1.3l.6-1.8c.3-.8.5-1.5.8-2.3l.2-.7c.2-.7.5-1.4.7-2.1.6-1.7 1.2-3.4 1.9-5.1.1-.3.2-.6.4-.9.4-1.1.9-2.2 1.6-3.2l.6-1.2.6-1.2c.4-.7.9-1.4 1.4-2l.4-.5c.4-.5.8-1 1.1-1.5l.3-.3c.5-.6.9-1.1 1.5-1.6.4-.4.9-.8 1.4-1.3.5-.5 1-.9 1.5-1.4.6-.6 1.3-1.1 2-1.5.6-.3 1.3-.6 1.9-.9.3-.2.7-.3 1-.5 1.5-.7 3.1-.9 4.6-1.1l.6-.1c.6-.1 1.1-.2 1.7-.2.6 0 1.1.1 1.6.2.1 0 .3.1.5.1 1.2.1 2.3.5 3.4 1 .5.2 1 .5 1.4.8l.4.2c.4.2.8.5 1.1.8 1 .7 1.8 1.6 2.4 2.3.4.4.8.9 1.2 1.3.4.4.8.8 1.1 1.2.2.2.3.4.5.5.6.6 1.2 1.3 1.7 2.1.3.5.6 1 1 1.6.5.8 1 1.5 1.4 2.4.3.6.7 1.1 1.1 1.7.2.3.5.6.7 1 .2.4.4.7.6 1.1l.9 1.9c.4.8.8 1.6 1.2 2.5 0 .1.1.2.2.3.1.1.2.2.2.3.1.2.3.4.4.6.4.7.8 1.3 1.1 2.1.1.3.3.5.4.8.1.2.3.5.4.7.3.8.7 1.5 1 2.3l.3.7c.2.4.4.8.5 1.3.4.9.8 1.9 1.2 2.7.6 1.1 1 2.3 1.3 3.3l.6 1.8s.8 2.2 1.1 3c0 0 .4 1.1.5 1.4.1.2.2.4.2.6.2.5.4 1 .5 1.6.4 1.4 1 2.8 1.5 4.2.3.6.5 1.2.7 1.7.5 1.3 1 2.6 1.5 3.8l.6 1.7c0 .1 0 .1.1.2 0 .1 0 .1.1.2.5.5.7 1.2.9 1.8.1.3.2.5.3.8.3.6-.1 1.8-.7 2.2-.2.1-.4.2-.6.2-.5 0-1-.3-1.3-.9l-.3-.6c-.3-.7-.6-1.3-.7-2-.1-.8-.4-1.4-.6-2.2-.1-.2-.2-.4-.2-.7l-.6-1.5c-.1-.2-.2-.5-.3-.7-.2-.6-.5-1.2-.7-1.8-.6-1.5-1.2-3-1.7-4.5-.1-.4-.2-.8-.4-1.1-.3-1-.6-2-1-3-.2-.5-.4-1.1-.6-1.6-.3-.6-.5-1.3-.8-1.9-.1-.2-.1-.3-.1-.5 0-.1-.1-.2-.1-.3v-.1H93c-.2.1-.4.1-.7.2-.5.1-.9.2-1.2.4-.7.5-1.5.7-2.2.9-.6.2-1.2.3-1.7.6s-1 .4-1.4.5c-.2 0-.4.1-.6.2-.1 0-.3.1-.4.1-.2.1-.4.1-.5.2-.1 0-.3.1-.4.1-.4 0-.8-.2-1.1-.5-.3-.3-.4-.7-.4-1.1v-.5c0-.6-.1-1.2-.1-1.7-.1-1.4-.2-2.9-.3-4.4 0-.3 0-.5-.1-.8-.1-.8-.1-1.6-.4-2.4-.1-.4-.2-.8-.2-1.2v-.5l-.1-.5c-.2-1.6-.4-3.3-.7-4.9-.2-1.1-.4-2.2-.5-3.2-.1-.5-.2-.9-.3-1.3-.1-.5-.3-1-.4-1.5-.3-1.3-.6-2.5-1.3-3.5-.1-.2-.2-.4-.2-.6 0-.1 0-.2-.1-.2-.1-.2-.2-.3-.2-.3s-.1 0-.2.1c-.4.3-.8.3-1 .3h-.8c-.4 0-.9.1-1.3.1l-2.1.3-1 .2c-.4.3-.8.3-1 .3h-.7c-.8.1-1.5.1-2.2.1h-.9c-1 0-2 .1-3 .1H60c-.7 0-1.3.1-1.9.2-.5.1-1 .2-1.5.2H54.7c-.7 0-1.5-.1-2.2-.2-.3 0-1-.1-1-.1h-.1-.2c-.4 0-.7.1-.8.8l-.3.9c-.1.2-.1.4-.2.6l-.2.8c-.3.8-.5 1.6-.7 2.4-.1.4-.2.8-.2 1.2 0 .2-.1.4-.1.7 0 .2-.1.4-.1.6-.1.6-.2 1.2-.3 1.7-.1.4-.1.8-.1 1.3 0 .3 0 .7-.1 1v1.4c0 .7-.1 1.3 0 1.9.1.6 0 1.1 0 1.6 0 .8-.1 1.5.1 2.1v.2c-.2.8-.1 1.6 0 2.5 0 .4.1.9.1 1.3 0 .9.2 1.8.3 2.6l.1.8c.1.4.1.8.2 1.2 0 .3.1.6.1.9.1.4-.1.9-.4 1.3-.4.4-.9.7-1.4.7-.5 0-.9.1-1.4.1-.2 0-.8.1-.8.1h-.5c-.8-.2-1.7-.4-2.5-.6l-1-.2-.5-.1c-.4-.1-.7-.2-1.1-.2-.2-.1-.4-.2-.5-.2l-.2-.1-.1.5c-.2.9-.4 1.7-.6 2.5-.1.3-.1.7-.1 1 0 .3 0 .5-.1.8-.1.7-.2 1.3-.3 2-.1.4-.2.8-.2 1.1-.1.4-.2.8-.3 1.3-.1.4-.1.9-.2 1.3-.1.8-.2 1.7-.4 2.5-.2 1-.4 1.9-.4 2.8 0 .2 0 .3-.1.4v.1l-.2 1c-.2.9-.4 1.7-.5 2.6v.9c0 .3-.1.5-.1.8-.6.1-1 .4-1.5.4zM155.1 158.1c-1.4 0-2-1.6-2.6-3.2-.2-.5-.4-1.1-.6-1.5-1.8-.6-4-.7-6.1-.7-1.6 0-3.3-.1-4.8-.4-5.3-1-9.5-2.3-13.4-4.1-6.6-3.1-12.7-6.6-16.1-14-2.6-5.7-2.4-11.6.5-17 4.2-7.7 13.6-13.9 23.6-15.4 4.9-.8 9.7-1.1 14.2-1.1 9.9 0 18.2 1.9 24.7 5.6 8.7 5 18.5 15.9 19.5 26.4.6 5.7-1.5 10.6-6.1 14.6-5.5 4.8-13.7 5.9-21.7 6.6h-.7c-.6 0-1.3 0-2.1-.1-.9-.1-1.8-.1-2.6-.1-1.2 0-2 .1-2.4.4-.5.3-.8 1.1-1.1 1.8-.3.8-.5 1.5-1.1 1.9-.2.1-.7.3-1.1.3zm-7.9-54.4H146c-15.9.3-26.4 5.2-31 14.5-6 11.9 1.9 21.3 11.3 26.1 5.6 2.9 10.8 4.5 17.8 5.6.9.1 1.9.2 2.9.3 1.1.1 2.3.1 3.3.3 2.9.5 3.2.9 4 2.3.2.4.5 1 1 1.7.5-.4.9-.9 1.3-1.5.5-.8 1.1-1.8 2.4-2.2.6-.2 1.3-.3 2.3-.3.9 0 1.9.1 2.8.1 1 .1 1.9.1 2.7.1h1c5.5-.6 13-1.4 17.8-5.2 5.4-4.3 7.1-11.2 4.3-18.3-.5-1.4-11.6-19-24.5-21.4-5.9-1.1-11.7-2.1-18.2-2.1zM241.6 157c-1.1-.6-1.7-1.7-2.2-2.7-.5-1.2-1-2.2-2.2-2.4-.7-.2-1.4-.2-2.4-.2-.8 0-1.5.1-2.3.1-.8.1-1.6.1-2.5.1-1.3 0-2.3-.1-3.3-.4-9.4-2.7-17.1-9.1-20.5-17.2-2.8-6.6-2.4-12.7 1.2-18.1 6.1-9.2 20.3-13.9 31.2-13.9h1.1c19.4.6 41.9 9.5 45.4 27.5 2.4 12.4-8 21.2-18.8 24.1-2.8.8-5.7 1.1-8.7 1.1-1.3 0-2.6-.1-3.9-.2-1.1-.1-2.2-.4-3.4-.8-1.3-.4-2.7-.8-3.8-.8h-.2c-1.8.1-2 .5-2.6 1.4-.4.6-.8 1.4-2 2.4l-.3.2.2-.2zm-1.4-51.8c-9.6 0-23.1 2.8-29.4 10.7-3.1 3.9-4.1 8.7-2.9 14.1 2 8.7 10.3 15.3 17.2 17.8 2.8 1 5.3 1 8.1 1h2.9c3 .1 3.6.9 4.5 2.3.3.5.7 1.2 1.4 1.9.3-.4.5-.7.7-1 .7-1.1 1.2-1.8 3.2-2.2h.5c1.1 0 2.6.5 4.1 1 1.1.4 2.2.7 2.9.8 1.4.2 2.8.3 4.2.3 3.7 0 7.5-.7 11.3-1.9 6.8-2.3 14.1-8.1 14-17.2-.2-17.7-23.6-25.5-37.3-27.3-1.7-.2-3.5-.3-5.4-.3zM196.8 229.3c-.7 0-1.2-.4-1.6-1-.2-.4-.4-.8-.6-1.3-.2-.4-.3-.8-.5-1.2l-.6-1.5c-.1-.3-.3-.7-.5-1-.2-.4-.4-.9-.6-1.3-.4-1.1-.9-2.2-1.3-3.3-.4-1-.7-1.9-1.1-2.9-.4-.9-.7-1.8-1.1-2.7-.2-.6-.5-1.2-.7-1.8-.1-.2-.1-.3-.1-.5 0-.1 0-.2-.1-.3l-.5-1.5c-.7-1.9-1.4-3.9-2.1-5.8-.2-.5-.4-1.1-.7-1.6-.2-.3-.3-.7-.5-1.1l-.6-1.5c-.3-.7-.6-1.4-.9-2.2-.4-.9-.8-1.8-1.2-2.6l-.6-1.4c-.1-.3-.3-.6-.4-.9-.2-.4-.3-.7-.5-1l-.3-.7c-.3-.7-.7-1.4-1-2.1-.2-.4-.6-.6-1.3-.7h-1.3c-.9 0-2.1-.1-3.2-.3-1.1-.2-2.3-.3-3.9-.4h-.7c-1.2-.1-2.4-.5-3.5-.8-.4-.1-.7-.2-1.1-.3-.5-.2-1.1-.3-1.6-.5l-.8-.3c-.1 0-.3-.1-.5-.2-.4-.2-.8-.5-1.2-.7-.3-.2-.7-.3-1-.5-.3-.2-.7-.3-1-.5-.4-.2-.9-.4-1.3-.7-.7-.5-1.4-1-2.2-1.5-.2-.2-.4-.3-.7-.5-.2.1-.4.3-.5.4-.7.7-1.5 1.3-2.2 1.9-.4.3-.8.6-1.1.9-.2.1-.3.3-.5.4-.1.2-.3.4-.5.4-.3.1-.6.3-.9.5l-.2.2c-.4.3-.7.4-1.1.6l-.4.2c-.8.3-1.5.7-2.3 1-.3.1-.5.1-.8.1h-.1v.1c-.1.3-.3.7-.4 1-.1.4-.3.8-.4 1.1-.2.6-.4 1.2-.6 1.7-.3.7-.5 1.3-.8 2-.3.8-.6 1.5-.9 2.3-.2.6-.4 1.1-.5 1.7-.1.4-.2.7-.3 1.1-.1.3-.2.7-.4 1l-.5 1.4-.9 2.4c-.1.2-.1.4-.2.6-.1.2-.1.5-.2.7-.2.5-.4 1.1-.6 1.6-.3.7-.5 1.5-.8 2.2-.3.9-.5 1.8-.8 2.6-.2.8-.5 1.6-.7 2.4-.1.3-.2.6-.4.9-.2.4-.3.7-.4 1.1-.1.6-.3 1.1-.4 1.7-.1.2-.1.4-.2.7l-.1.4c-.3.9-.5 1.8-.8 2.7-.1.4-.2.7-.4 1.1-.2.5-.3 1-.5 1.5-.1.2-.1.5-.1.7 0 .3-.1.5-.1.8-.1.3-.2.7-.3 1l-.3.9c-.1.3-.1.7-.2 1.2 0 .9-.6 1.5-1.4 1.6-.6 0-1.4-.7-1.4-1.3 0-.3 0-.5.1-.8.2-.8.4-1.5.6-2.3l.5-1.8c.3-1.2.7-2.4 1-3.6.1-.5.3-.9.5-1.4.1-.2.2-.4.2-.6.2-.4.3-.9.4-1.4l.3-1.2c.3-1 .7-2 1-2.9l.4-1.1c0-.1.1-.1.1-.2.1-.9.4-1.6.6-2.3.1-.2.2-.4.2-.7.2-.6.4-1.3.6-1.9.3-.9.5-1.7.9-2.6.2-.4.3-.9.4-1.3.2-.7.5-1.4.8-2.1.2-.5.4-1 .5-1.6.1-.4.2-.8.3-1.1l.6-1.5c.1-.3.2-.5.3-.8.1-.2.2-.5.3-.7.1-.2.2-.4.2-.6l.6-1.6c.3-.9.7-1.7 1-2.6.4-1.2.9-2.4 1.3-3.8.2-.9.6-1.7.9-2.5l.2-.4c.2-.4.3-.7.5-1.1.3-.6.5-1.1.7-1.6.3-.9.7-1.7 1.2-2.5.2-.3.3-.6.5-.9.4-.9 1-1.6 1.7-2.2.3-.9.9-1.4 1.5-2 .3-.3.6-.5.8-.8.2-.2.3-.4.5-.6.3-.4.6-.7.9-1.1.3-.3.7-.5 1-.7.1-.1.3-.1.4-.2h.1c.3-.5.7-.6 1-.7.2 0 .3-.1.4-.2.2-.1.4-.3.6-.4.3-.2.5-.3.7-.5.8-.6 1.7-.8 2.5-.9h.2c.2 0 .4-.1.7-.2l.8-.2 1.2-.3h.8c.4.1.7.1 1 .1.2 0 .3 0 .5-.1h.2c.2 0 .3 0 .5.1.7.3 3.9 1.8 3.9 1.8.8.4 1.4.9 2.1 1.4.9.7 1.6 1.4 2.2 2.2.4.4.7.8 1.1 1.2 1.5 1.5 2.9 3.3 4.1 5.4.5.8.9 1.5 1.4 2.3.5.8 1 1.5 1.5 2.3.5.9.9 1.8 1.3 2.7l.2.3c.4.9.8 1.8 1.3 2.8.4.9.9 1.9 1.3 2.8.4.8.8 1.7 1.2 2.5.3.7.6 1.3 1 2 .1.2.2.5.3.7l.1.2v.2l.8 1.9c.5 1 .9 2 1.4 3 .1.2.2.5.3.7l.1.3.6 1.7c.5 1.4 1 2.7 1.5 4.1.3.9.7 1.8 1 2.7l.8 2c.4 1 .8 2.1 1.2 3.1l1.5 3.6.6 1.5.5 1.3c.4 1.1.9 2.1 1.3 3.1.2.4.4.9.7 1.3.1.2.3.5.4.8l.2.3-1.2 1.7-.4.1zm-34.7-50.7c.1 0 .3 0 .4.1.5.2 1 .4 1.4.7.5.4 1.1.8 1.6 1.1l1.2.9c.1.1.2.2.3.2.4.3.8.6 1.2.7.3.1.6.2 1 .3.3.1.5.2.8.4.5.2.9.4 1.4.5.2 0 .4.1.6.2-.5-.2-1-.5-1.5-.8-1.7-1.1-3.4-2.4-5.2-3.9-.4-.3-.6-.6-.6-1 0-.3.1-.7.5-1 .3-.3.6-.4 1-.4s.8.2 1 .5c.4.4.8.8 1.3 1.1.7.4 1.3.8 1.9 1.2.1.1.3.2.4.3.2.2.4.4.6.4.1 0 .1 0 .2.1-.4-.4-.7-.9-1-1.3l-.5-.6.1-.3c.4-.9.9-1.1 1.3-1.1s.7.2 1.1.5c.2.2.4.3.6.5l-.6-.9c-.7-1-1.4-1.8-2-2.5-1.2-1.3-2.3-2.5-3.4-3.5-.5-.5-1.1-1-1.8-1.3-.5-.3-1-.5-1.6-.7-.4-.2-.9-.4-1.3-.6-.7-.3-1.4-.5-2.2-.5-.3 0-.7 0-1 .1-.9.1-1.8.4-2.7.7-.3.1-.5.2-.8.3-.5.2-.9.3-1.2.5-.7.4-1.3.9-1.9 1.3-.5.3-.9.7-1.3 1-.3.3-.7.7-1 1.1l-.4.5c.2.2.4.3.6.5.2.1.3.3.5.4l.6.6c.4.4.8.7 1.2 1 .7.5 1.4 1.1 2.1 1.7.3.2.6.5.9.7l.3.3c.4.4.9.7 1.3 1l2.4 1.2c.4.2.8.4 1.1.6 1.2.6 2.4 1.1 3.6 1.5-.2-.1-.4-.3-.6-.4-1-.6-1.8-1.3-2.3-1.9-.5-.5-.4-1-.2-1.3-.1-.5.2-.7.6-.7zm-14.2-3.1c-.1.1-.2.2-.3.4-.1.1-.1.2-.2.3l-.4.6c-.3.5-.6.9-.9 1.4-.2.3-.3.6-.4.9-.2.5-.4.9-.6 1.4-.4.7-.7 1.4-1 2.1-.1.3-.3.7-.4 1 1.9-.6 6.2-3.3 7.8-5.2l-.4-.4c-.7-.5-1.3-1.1-2-1.6.1 0-1.1-.9-1.2-.9.1 0 0 0 0 0zM58.9 161c-.7 0-.9-.6-1-1-.1-.4-.3-.9-.8-1.4-1.8-1.8-3.1-2.2-4.9-2.2h-1.4c-.6 0-1.2.1-1.9.1-.5 0-1.1 0-1.6-.1-10.3-.7-28-7-33.2-18.3-2.6-5.5-1.6-11.4 2.8-17.3 7.1-9.6 22-15.7 37.9-15.7 6.9 0 13.2 1.2 18.2 3.5l3.3 1.3c9.7 3.3 21.5 16.5 21.6 27.9 0 4.5-1.9 10.5-10.9 13.6-3.9 1.4-8.4 2.1-14.1 2.5h-.7c-.8 0-1.7-.1-2.6-.1-1-.1-2-.1-3-.1-1.5 0-2.5.2-3.2.6-.7.4-1.2 1.8-1.6 3.1-.5 1.5-.9 2.9-1.8 3.3-.6.2-.9.3-1.1.3zm-4.5-53.1c-1.4 0-2.8.1-4.1.3l-7 1.2c-9.6 2.1-17.6 4.4-24.3 13.3-5.4 7.1-4.4 14.7 2.9 21.4 4.3 4 10.6 7 18.2 8.8 2.7.6 5.3.8 8 .9 1.3.1 2.6.1 4 .3 2.2.2 4.8.6 6.4 2.2.2.2.3.4.4.5.1.1.1.2.2.2.2-.5.5-1 .7-1.5.3-.6.6-1.3.9-1.9 1.7-2.6 5.3-2.9 8.9-2.9h2.9c1 0 2.1.1 3.1.1 2.3 0 5.3-.1 7.7-1 5.8-2.2 9.4-4.9 10.9-8.3 1.3-3 1.1-6.6-.6-11.1-5.3-13.5-24.5-22.5-39.2-22.5zM213.8 228.6c-.2 0-.4 0-.5-.1-.6-.2-.9-.8-.8-1.5.1-.7.8-4.1.8-4.1.1-.5.2-.9.2-1.4.1-.8.3-1.6.4-2.4.2-1.1.5-2.1.7-3 .4-1.3.7-2.6 1.1-3.9.1-.2.2-.5.2-.7.1-.2.1-.4.2-.6.2-.5.3-1.1.5-1.6.3-1 .6-1.9.9-2.9.4-1.1.8-2.3 1.2-3.4.2-.6.4-1.2.6-1.7.1-.4.2-.7.4-1.1.2-.5.3-.9.5-1.4.5-1.4 1-2.8 1.6-4.2l.3-.8 1.2-3.3c.2-.6.5-1.3.8-1.9.2-.5.5-1.1.7-1.6.5-1.2.9-2.4 1.4-3.6.1-.3 0-.6-.3-1-1.2-2-1.5-3.9-1.1-5.8.2-.7.4-1.4 1.2-1.9.2-.1.3-.3.3-.6-.1-.4 0-.7 0-1.1v-.4c.1-1.2.8-2.2 2-2.8.4-.2.6-.4.6-.6.6-1.7 1.9-2.6 3.1-3.3.3-.2.6-.2.8-.3.1 0 .3 0 .4-.1.7-.2 1.5-.4 2.5-.4h.2c.3 0 .6 0 .9.2.1.1.2.1.3.1.2 0 .3-.1.6-.3.2-.1.4-.3.6-.4.4-.3.9-.7 1.4-.9l.2-.1c.6-.3 1.4-.6 2.2-.6.2 0 .5 0 .7.1.2 0 .3.1.6.1h.7c1 0 2 .3 2.9.6l.3.1c1.1.3 2.2.7 3.2 1.5.4.3.6.5.9.5.1 0 .3-.1.5-.2.3-.2.6-.2.8-.3h.5c.2 0 .3.1.5.2.1.1.3.1.6.2.2 0 .4.1.5.1l.3.1c.3.1.6.2.9.4.2.1.6.4.8.8.2.4.3.8.4 1.2 0 .1.1.2.1.3l.2.1c.4.1.8.3 1.2.5 1 .5 1.4 1.3 1.2 2.4v.2c.1.1.2.1.3.2l1.2.9c.3.3.6.6.9 1 .1.1.2.2.3.4.1.1.2.3.2.6 0 .4.1.8.2 1.3.1.7.3 1.5 0 2.4-.1.2-.1.3-.1.5s-.1.4-.1.6c-.1.4-.3.8-.5 1.2-.1.2-.3.4-.4.6.1.2.3.4.4.6.3.5.5 1.1.8 1.6l.6 1.2c.6 1.2 1.1 2.4 1.7 3.6l.6 1.5c.2.4.3.9.5 1.3s.4.9.6 1.3c.3.6.6 1.2.8 1.8.7 1.8 1.3 3.4 1.9 5.1l.9 2.7c.2.8.5 1.5.7 2.3.4 1.2.9 2.5 1.3 3.7l.6 1.8c.1.4.3.8.4 1.2l.5 1.5c.3 1 .6 2 1 3 .5 1.6 1.1 3.2 1.7 4.8.2.4.3.8.5 1.2.2.5.4.9.6 1.4.1.4.2.9 0 1.3-.2.6-.7 1-1.3 1-.7 0-1.2-.4-1.4-1-.1-.2-.2-.4-.3-.7-.2-.4-.4-.9-.5-1.3-.6-1.6-1.2-3.3-1.8-5.1-.3-.8-.5-1.7-.8-2.5-.2-.8-.5-1.5-.7-2.3-.2-.5-.3-.9-.5-1.4-.2-.5-.4-.9-.5-1.4-.3-.9-.6-1.7-.8-2.6-.2-.7-.4-1.3-.6-2-.5-1.4-.9-2.8-1.4-4.2l-.3-1c-.4-1.1-.7-2.1-1.1-3.2l-.9-2.1c-.2-.4-.4-.8-.5-1.2l-.9-2.1s-.6-1.4-.8-1.8c-.3-.8-.7-1.6-1-2.3-.6-1.3-1.3-2.6-2.1-4-.8-1.5-1.5-2.7-2.2-3.8-1.3-2.2-2.9-4.7-4.4-7.1-1.2-1.8-2.7-3.4-4.3-4.7-.1-.1-.2-.2-.3-.2-1.7-.7-3-1.1-4.3-1.3-.3 0-.5-.1-.8-.1-.6 0-1.2.1-1.7.3-1.4.5-2.4 1.4-3.5 2.5l-.2.1c-.2.2-.5.4-.7.6-.2.2-.4.3-.6.5l-.7.7c-.3.4-.6.9-1 1.4-.5.8-1 1.7-1.4 2.5-.5.9-1 1.8-1.4 2.6l-1.2 2.1c-.5.9-1 2-1.4 3.3-.3.7-.5 1.5-1 2.2-.3.4-.5 1-.6 1.8-.1.4-.2.7-.3.9-.1.1-.1.2-.2.4-.2.4-.3.8-.5 1.2-.3.6-.6 1.2-.7 1.8-.2.8-.5 1.6-.8 2.4-.1.4-.3.8-.4 1.2-.3 1-.7 1.9-1.1 2.8-.2.6-.5 1.2-.7 1.7-.2.5-.3.9-.5 1.4-.1.4-.2.7-.4 1.1-.1.3-.3.7-.4 1-.1.3-.3.6-.4.9l-.3.9c-.1.2-.2.8-.2.8l-.6 1.8c-.4 1.1-.7 2.3-1.1 3.4l-.2.8-.2.5c-.1.3-.2.5-.3.8-.1.5-.3.9-.4 1.4-.1.5-.3 1-.4 1.4-.1.3-.2.5-.2.8-.1.2-.2.5-.2.7l-.3.9c-.2.7-.5 1.5-.5 2.2-.1 1.4-.4 2.8-.7 3.9-.2.7-.3 1.2-.4 1.7v1.3c0 .3 0 .6-.2.9-.8.6-1.2.8-1.7.8zm20.8-60.7c-1.1.1-2.1.5-2.9 1.3-.4.4-.7.9-.6 1.3 0 .6-.3.9-.5 1-.3.2-.6.3-.8.4-.5.2-.8.5-1 .8-.2.4-.2 1-.1 1.5.2.7.3 1.2.1 1.8l-.1.4h-.4c-.4 0-.9.3-1 .4-.1.3-.2.7-.3 1.1v.2c-.1.6 0 1.3.3 1.9 0 .1.1.3.1.4.1-.1.1-.3.2-.4.2-.5.4-.9.7-1.4l2.4-4.5c.3-.5.5-.9.8-1.4.3-.6.7-1.2 1-1.8.3-.6.7-1 1-1.5.3-.3.5-.6.7-1 .2-.1.3-.3.4-.5zm20.6 3.1c1.2 1.8 2.3 3.6 3.4 5.4.5.9 1.1 1.7 1.6 2.6.2-.1.3-.1.3-.5V177c0-.5-.2-.8-.6-1.3-.3-.5-.8-.8-1.3-1.1-.3-.2-.5-.3-.8-.5-.6-.5-.8-.8-.6-1.7.2-.5.1-.6-.4-.8l-.6-.2c-.3-.1-.5-.2-.8-.3.1 0-.1-.1-.2-.1zm-2-2.8c.5.6 1 1.3 1.5 2v-.6c0-.4-.1-.6-.1-.7-.3-.4-.8-.6-1.4-.7z"/><path d="M236.1 195.3c-1 0-2-.2-3-.7-.5-.3-1-.7-1.4-1-1.1-1-1.7-2.3-1.9-4.2-.2-1.8.3-3.6 1.7-5.5.2-.3.5-.6.9-.7l.4-.2c.6-.3 1.3-.6 2-.7.8-.2 1.8-.3 2.8-.3.6 0 1.1.1 1.6.2 1 .2 1.8.6 2.7 1.4.6.5 1 1.3 1.1 2.4v.4c.2 0 .3 0 .5-.1.8-.1 1.5-.2 2.3-.2.2 0 .3 0 .4-.3.4-1 1.1-1.9 2.3-2.7.3-.2.7-.4 1-.5.4-.2.8-.3 1.1-.6.3-.3.7-.3 1.1-.3h.4c.3 0 .5-.1.7-.1.8 0 1.5.2 2.1.4l.3.1c1.1.3 2 1.2 2.3 2.6l.1.3c.2 1 .4 1.9.5 3 .1 1.4-.5 2.6-1.1 3.7l-.1.3c-.6 1.3-1.8 1.9-2.9 2.3-.4.2-.9.3-1.4.3h-.2c-1.6-.1-3.6-.4-5-2.1-.8-.9-1.1-1.9-1.2-2.8 0-.2-.1-.4-.1-.6h-2.9c0 .2-.1.3-.1.5-.1.6-.2 1.3-.5 1.8-.8 1.9-2 3.1-3.7 3.7-1.1.1-2 .2-2.8.2zm-2-2.9s.1 0 0 0c.8.3 1.5.5 2.1.5.5 0 1-.1 1.5-.3 1-.4 1.6-1.1 2-2 .4-1 .6-2.1.6-3.2 0-.1 0-.3-.1-.5 0-.4-.1-.8-.2-1.2-.1-.4-.3-.9-.7-1-.4-.1-.9-.2-1.4-.2h-.7c-.3 0-.6.1-.9.2-.5.1-1 .2-1.5.2h-.4c-.2 0-.5 0-.7.3-.3.3-.5.5-.7.8l-.1.2c-.3.6-.7 1.3-.6 1.9 0 .2.1.5.1.7 0 .5.1 1 .2 1.4.2.8.7 1.3 1.2 2l.3.2zm16.5-8c-.4.2-.7.5-.9.7-.7.8-1.1 1.8-1 2.8 0 .2 0 .3.1.5 0 .3.1.7.1 1-.1.4.1.7.5 1.1.5.6 1.2.9 2.4 1h.2c.3 0 .5 0 .8-.1.6-.1 1.3-.3 1.6-.9.7-1.2 1-2.2.9-3.3-.1-.6-.2-1.1-.2-1.7-.2-1-.7-1.5-1.7-1.5h-2.2c-.4.3-.5.4-.6.4zM160.4 214.1c-1 0-2-.6-2.6-1.6-.4-.8-.7-1.6-.9-2.2-.3-.9-.6-1.9-1-3.3-.1-.3-.1-.6-.2-.9-.1-.3-.1-.6-.2-.8-.3-1-.4-2-.5-3l-.1-.6c0-.1 0-.2-.1-.3-.1-.2-.1-.4-.1-.7 0-.7.4-1.3.8-1.8l.1-.2c.2-.3.5-.3.7-.3l1.5-.2c.9-.1 1.8-.3 2.8-.4.7-.1 1.4-.3 2.1-.5.2 0 .3-.1.5-.1.5 0 1 .2 1.3.6.3.3.5.7.5 1.1h.1l-.1.6.1 1.5c.1 1.3.1 2.5.2 3.8 0 .4 0 .8-.1 1.2V207.3c0 .5 0 1.1-.1 1.6-.2 1.4-.8 2.7-1.7 3.8-.5.6-1.2 1.1-2.1 1.4h-.9zm1.2-13.8h-.3c-1.1.2-2.3.4-3.4.6-.1 0-.4.1-.5.1 0 0 .1.3.1.4v.1c.1.5.2 1 .3 1.6.2 1.2.5 2.3.7 3.5.1.4.2.9.4 1.3.1.3.2.5.2.8.2.7.4 1.3.7 1.9.2.4.5.9.9.9.3 0 .7-.2 1.1-.7.3-.3.5-.7.5-1.2.1-.4.1-.9.2-1.3l.3-1.5c.1-1 0-2.1 0-3.1v-.9c0-.3 0-.7-.1-1 0-.3 0-.5-.1-.8v-.3-.5c0 .1-1 .1-1 .1zM64.5 204.5c-.4 0-.8 0-1.2-.1-1-.2-1.6-.8-2.2-1.5-.3-.4-.6-.8-.9-1.1l-.3-.5c-.4-.5-.4-1.1 0-1.6.2-.3.5-.5.9-.5h.4c.9.1 1.3.7 1.6 1.1.4.6.7.9 1.2 1.2.3.2.6.3.9.3.3 0 .7-.1 1-.3.8-.5 1.3-1.1 1.4-1.9.2-1 .8-1.1 1.4-1.1h1.1l.1.3c.3.5.5 1.2 0 2.1-.6 1.1-1.2 1.8-1.9 2.4-1 .7-2.2 1.2-3.5 1.2zM73.1 193.5c-1-.1-1.6-.7-1.8-1.6-.1-.7-.1-1.5-.2-2.1 0-.7.4-1.2 1.1-1.4.2 0 .3-.1.4-.1.3 0 .8.1 1.2.7.1.1.2.2.3.4l.2.2.1.1v1.7c.1.8-.2 1.3-.9 1.7-.1 0-.1.1-.2.1l-.3.2.1.1zM56 193.4c-.3 0-.7-.1-1.1-.3l-.3-.1v-.3c0-.2-.1-.5-.1-.7-.3-1.5-.3-2.4 2-3.2l.2-.1.2.1c1.2.5 1.6 1.4 1.1 2.6l-.1.2c-.1.4-.3.8-.6 1.1-.3.5-.8.7-1.3.7zM150.6 194.3c-.3 0-.6-.1-.9-.3-.2-.2-.5-.4-.5-.8-.2-.8-.1-1.7.2-2.3.3-.5.8-.8 1.2-.9l.4-.2.2.2c1.1.8 1.2 1.8 1.1 2.8 0 .8-.8 1.5-1.7 1.5zM168.7 193.9c-1.2-.7-1.2-1.8-1.2-2.7 0-.9.7-1.7 1.5-1.7h.3c.7 0 .9.5 1.1 1v.1c.4 1.1.4 1.3.1 2.4l-.1.2-1.5.9-.2-.2zM137.2 126.9c.7-.9 2.8.2 3.4-.2 1-.7-.3-2.3.2-3 .7-1.1 1.4 1 1.8 1.3 1.3 1.3 1.8.3 3.6.2 0 1-1.1 1.3-1.5 2.1-.6 1.1-.2 1.4.7 2.4.3.3 1.7 1.2.6 1.7-.7.3-2.5-1.7-3.4-1.4-.7.2-1 1.5-1.7 1.6-1.3.3-.4-1-.5-1.9-.4-1.8-2.4-1.2-3.2-2.8zM158 131.3c-.8-.4-2.6-1.8-3.4-1.7-1.1.2-1 1.6-1.9 2.2-1.1.8-.9-.3-.7-1.3.1-.9.4-1.4-.2-1.9-.4-.3-1.8-.5-2.2-.6.5-1.7 1.9-.2 2.9-1.4.5-.6-.4-2.9.8-2.8.8.1.4 1.5 1.3 1.8.7.3 2.9-1.4 3.9-1.7 0 1.6-2.9 2.7-2.8 4 0 1.2 3.5 1.7 2.3 3.4zM172 126.7c.2 0 .3 0 .2-.2-1-.2-4.3-1-1.5-1.3.2 0 1.6.3 1.7.3 1.2-.5.3-.9.7-1.6.3-.4 0-.7.8-.4.3.1.6.9.5.9 1.1.5 2.5-.7 3.9-.4-.1 1.6-3 2.3-2.6 3.9.2.9 2 1.1 1.3 2-.7.9-1.1-.4-1.9-.7-1.4-.5-2.9 2.3-3.5 1.9-.9-.6 1.5-3.3.4-4.4zM125.8 126.8c1 .1 3.3.8 4.1 0 .4-.4 0-2.6.4-3 1-1.3.9.6 1.2 1.3.6 1.4 1.1 1.3 2.7 1.3 0 1.1-1.4 1.7-1.1 2.5.3 1 1.7.9 1 2.2-.5-.2-1.6-.8-2.1-.8-.8 0-1 .5-1.5 1.1-1.2 1.4-1.5 1.4-1.4-.4.1-1.4.8-1.8-.4-2.7-1.1-.6-2.7 0-2.9-1.5zM162.5 132.1c-.9-.9.4-1.9.3-2.8-.1-1.3-.2-.9-1.6-1.1-.4-.1-1.7.3-1.2-.6.3-.6 2.3-.7 2.8-1 .6-.4 2-2.9 2.2-2.9.6 0 .6 1.3 1 1.6.7.7 1.2.5 2.2.4 0 1.1-1.2 1.2-1.2 2.3 0 1 1.3 1.3.6 2.5-.9-.5-1.6-1.1-2.5-.8-.8.4-1.9 1.7-2.6 2.4zM68.4 130.3c.4 1.1-1.5 2.1-1.9 3-.4.9-.5.4 0 1.4.6 1.1 1.4.7 1.2 2-1 0-1.7-1.3-2.7-1.3-.9 0-2.7 2.7-3.1 2.4-.8-.6.2-2.2.2-2.9-.1-1.8-1.3-.9-2.2-2.5.8-.5 2.5.1 3.1-.7.4-.6-.7-2.6.4-2.4.9.1.9 1.5 1.4 1.8 1 .5 2.5-1 3.6-.8zM56.3 136.1c-.5-.2-1.1-.7-1.6-.8-1.4-.3-.6-.3-1.7.3-.5.3-1.3 1.5-1.9 1-.8-.5.6-2.3-.2-2.9-.4-.3-1.9-.6-2.1-.9 1-.8 2.4 0 2.9-1 .4-.8.3-2.4 1.4-2.6.8-.1.6 1.9 1.1 2.1 1.1.5 2.8-.5 2.3.9-.2.6-1 .7-.9 1.4.1.9 1.8 1.3.7 2.5zM41.2 137.8c-1.4-.8.1-2.2-.4-3.2-.1-.3-1.9-.9-1.7-1.3.3-.9 1.7-.1 2.3-.8.7-.9-.1-1.9 1.3-2.4.4 1.4.3 1.6 1.6 1.9.9.3 1.7-.5 1.6.8-.1 1.1-1.5.3-.7 1.9.3.7 2.2 1.1 1.3 2.2-.9-.5-2-1.7-3.1-1.4-.9.2-1.6 1.6-2.2 2.3zM32.8 129.9c0 2-.3 2.1 1.5 2 2.9-.2.6.4.1 1.7-.5 1.4 1.6 1.5 1.5 2.5-.1 1.2-2.4-.5-3-.5-.8.1-2 2.3-2.6 1.3-.4-.6.7-1.8.4-2.3-.3-.7-1.5-.6-1.9-1-1.2-1 0-.7 1.1-.9 1.1-.2 1.1-.1 1.6-.9.4-.6.2-2 1.3-1.9z"/><g><path d="M222 120.7c-.3 3.5-4.5 5-5.4 1-.3-1.5.3-3.6 1.7-4.4.8-.4 2.9-.6 3.3.5.2.6-.2.4-.6.5-.3.1-1-.5-1.5-.4-.7.1-1.2.7-1.5 1.2-2.2 3.7 3 5.4 2.7 1.5-.5.1-2.6.8-2.1-.5.4-1 3.7-1.3 3.4.6zM228.1 120.5c-.3 4.3-5.6 4.8-5.2.1.3-4.3 5.6-4.8 5.2-.1zm-1.2-.3c.3-3.1-2.6-2.3-2.9.3-.4 3.5 2.6 2.7 2.9-.3zM234.3 120.5c-.3 4.3-5.6 4.8-5.2.1.4-4.3 5.7-4.8 5.2-.1zm-1.2-.3c.3-3.1-2.6-2.3-2.9.3-.3 3.5 2.6 2.7 2.9-.3zM240.2 120c-.1 1.5-1.8 4.9-3.8 4.2-1.7-.6-.7-3.6-.5-4.8.1-1-.1-2 1-2.4 2-1 3.4 1.2 3.3 3zm-1.1-.3c.2-1.7-1.4-2.2-2.2-.9-.2.4-.6 3.6-.2 3.9 1.3.7 2.3-2.5 2.4-3zM250.5 117.5c-.1.6-.7.2-1 .3-.7.4-.5 0-.9.7-.5.9-.3 2.7-.4 3.8-.1.5 0 2.3-.9 1.8-.7-.3-.2-2.2-.1-2.7.1-.7.8-2.8.2-3.3-.4-.3-1.5.6-1.9 0-.4-.6 4.6-2.3 5-.6zM252.4 123c-.2 1.3-.6 1.5-1.2.4-.4-.9 0-5.2.5-5.9.7-1 .8-.5 1 .4.4 1.3-.2 3.7-.3 5.1zM259.6 123.3c-.2.6-.4 1-1 .5-.7-.6.1-3.4-.1-4.4-.2.6-1.1 4.1-1.9 4.2-.9.1-1.1-3.3-1.3-3.9-.2.7.2 3.6-.3 4.1-1.1 1.2-1-2.5-1-2.9.1-.8.2-3.3 1-3.9 1.5-.9 1.6 3.3 1.7 4.1.5-.8 1.5-5.4 2.9-3.7.7 1 .1 4.9 0 5.9zM266.2 122.1c-.7 1.1-3.9 2.8-4.8 1.5-.9-1.3.1-5.7 1.3-6.4.6-.4 4.1-.4 2.9.6-.9.7-2.8-.4-2.8 1.6.4 0 4.2-.8 2.7.6-.5.5-1.8 0-2.4.4-.9.6-.9 1.4-.7 2.4 1.1-.1 2.9-1.8 3.8-.7zM223.3 137.4c-.8 1.5-1.4-.9-1.4-1.3-.1-1.1.1-2.3-.1-3.4-.7.8-1.2 3.7-2 4.1-1.4.7-1.4-2.2-1.6-3-.7 1 .1 2.2-.3 3.1-.7 1.8-1.3-.3-1.3-1.4 0-.8.3-5.5 1.9-4.7.9.5.1 2.7 1.1 3 .7-1.2 2.8-5.1 3.5-1.8.2.7 0 1.3-.1 2 .1 1 .4 2.2.3 3.4zM229.3 137c-.1.5-.5.8-1 .6-.9-.5.4-1.3-1.1-1.6-1.6-.2-.7.6-1.6 1.3-.6.4-.7.7-1-.3-.4-1.2 1.2-6.2 2.6-6.4 1.5-.3 1.5 1.7 1.7 2.7 0 .9.6 2.6.4 3.7zm-1.3-2.1c-.1-.9.1-2.4-.6-3.2-.8.8-1 2.1-1.2 3.2h1.8zM235 136.8c-.4 2.9-2.9-3.1-3-3.3-.1.7.2 3.6-.5 4-1.3.8-.6-2.6-.6-3.1s-.1-4 .9-3.9c.9.1 1.6 3.8 2.2 4.5.1-.6-.3-5.2.9-4.5.8.6.2 5.7.1 6.3zM241.1 137c-.1.5-.5.8-1 .6-.9-.5.4-1.3-1.1-1.6-1.6-.2-.7.6-1.6 1.3-.6.4-.7.7-1-.3-.4-1.2 1.2-6.2 2.6-6.4 1.5-.3 1.5 1.7 1.7 2.7 0 .9.6 2.6.4 3.7zm-1.3-2.1c-.1-.9.1-2.4-.6-3.2-.8.8-1 2.1-1.2 3.2h1.8zM247 134c-.3 3.2-4.1 5.7-5 1.5-.3-1.5.3-3.5 1.5-4.4.4-.3 2.8-1.3 2.9 0 0 .7-.6.1-1 .4-1.3.9-2.3 1.3-2.4 3.3-.2 3 2.9 2.1 2.6-.5-4.3.2 1.8-2.8 1.4-.3zM253 135.7c-.7 1.1-3.9 2.8-4.8 1.5-.9-1.3.1-5.7 1.3-6.4.6-.4 4.1-.4 2.9.6-.9.7-2.8-.4-2.8 1.6.4 0 4.2-.8 2.7.6-.5.5-1.8 0-2.4.4-.9.6-.9 1.4-.7 2.4 1.1-.1 3-1.8 3.8-.7zM259.7 136.9c-.2.6-.4 1-1 .5-.7-.6.1-3.4-.1-4.4-.2.6-1.1 4.1-1.9 4.2-.9.1-1.1-3.3-1.3-3.9-.2.7.2 3.6-.3 4.1-1.1 1.2-1-2.5-1-2.9.1-.8.2-3.3 1-3.9 1.5-.9 1.6 3.3 1.7 4.1.5-.8 1.5-5.4 2.9-3.7.7 1 .2 4.9 0 5.9zM266.3 135.7c-.7 1.1-3.9 2.8-4.8 1.5-.9-1.3.1-5.7 1.3-6.4.6-.4 4.1-.4 2.9.6-.9.7-2.8-.4-2.8 1.6.4 0 4.2-.8 2.7.6-.5.5-1.8 0-2.4.4-.9.6-.9 1.4-.7 2.4 1.1-.1 3-1.8 3.8-.7zM271.7 136.8c-.4 2.9-2.9-3.1-3-3.3-.1.7.2 3.6-.5 4-1.3.8-.6-2.6-.6-3.1s-.1-4 .9-3.9c.9.1 1.6 3.8 2.2 4.5.1-.6-.3-5.2.9-4.5.8.6.2 5.7.1 6.3zM278.4 131.1c-.1.6-.7.2-1 .3-.7.4-.5 0-.9.7-.5.9-.3 2.7-.4 3.8-.1.5 0 2.3-.9 1.8-.7-.3-.2-2.2-.1-2.7.1-.7.8-2.8.2-3.3-.4-.3-1.5.6-1.9 0-.5-.6 4.5-2.3 5-.6z"/></g></svg>