<svg xmlns="http://www.w3.org/2000/svg" viewBox="0 0 300 250"><path d="M131.1 238.7c-.4 0-1-.3-1.7-.9-1.1-1-.5-5-.2-7.6.1-.9.2-1.7.3-2.1 0-.4.1-1.3.2-2.5.9-15.3 1.1-21.4.6-21.9l-.1-.1h-.1c-.5-.4-1.8-1.2-2.5-1.2-.3 0-.5.2-.6.3-.5.7-11.7 5.6-19.1 8.9-3.7 1.6-7 3.1-8.3 3.7-.7.3-1.5.8-2.3 1.3-2 1.2-4.3 2.5-6.3 2.5-1 0-1.9-.3-2.7-1-1.5-1.3-17.2-22.3-21-34.4-.5-1.7-4.9-6.1-6.4-7.3-8.2-6.5-12.9-14.1-15.7-25.4-.5-2.1-.6-4.2-.6-6.1-.1-3.1-.2-6-1.9-9-3.1-5.1-5.3-10.3-7.6-15.8l-1.1-2.6c-1.3-3.1-3.3-7.2-5.3-11.5-5-10.7-11.3-24.1-11.4-28.2-.1-5.2 5-8.1 7.1-9.3l.4-.3c6.1-3.6 12.9-6.7 19.5-9.6 2.9-1.3 5.8-2.6 8.6-4C67.7 47.2 79.2 42.2 90 38c.9-.3 2.8-1.3 5.5-2.7 9.6-4.9 27.6-13.9 37.4-13.9h.2c.8.7 1.5 2.1 2.2 3.5.4.8.7 1.5 1.1 2 2.7 4.4 4.7 7.7 6.5 10.9 1.8 3.1 3.7 6.1 5.5 9 1.9 3 3.9 6.2 5.7 9.4.8 1.4 1.5 2.8 2.3 4.1 2.7 4.9 5.5 9.9 8.9 14.3.3.3.6.7 1 1.2 1.4 1.6 3.2 3.7 3.3 5.3 0 1.2-.2 1.7-.4 1.9-.1.1-.2.2-.4.2-.9 0-2.7-1.7-4-3.3-1.7-2.1-6.2-9.6-11.4-18.3-8.8-14.7-19.8-33.1-23.8-36l-.3-.2-.1.3c-2 1.3-51.6 22.7-75.6 33-8.9 3.8-13.3 5.7-13.4 5.8-1.6.9-3.7 1.7-5.8 2.6-4.5 1.9-9.6 4.1-12.5 7-2.2 2.2-2.1 2.8-1 5 .2.5.5 1 .7 1.7 1.3 3.1 2.5 6.2 3.9 9.3 3.6 8 6.7 14.7 9.4 21.9l.5 1.3c2 5.2 4.1 10.5 6.6 15.4l.1.1c.9 1.8 1.9 3.7 3.3 5.2.3.3.8.5 1.4.7.5.2 1.1.3 1.3.7 1.2 1.4 2 3.2 3 5.1.8 1.7 1.6 3.4 2.7 4.8 1.5 2 2.9 3 4.5 3 2.3 0 4.5-2.2 7-5.5.4-.5.7-1 1.1-1.5 1.5-2.1 2.8-3.8 4-3.8.9 0 2 1.1 3.1 3.3 1.2 2.4 1.3 4.2 1.5 6.5 0 .5.1 1.1.1 1.7v1.5c-.1 2.2-.2 4.1.4 4.8.9 1.2 4 2.7 6.6 3.9 1.1.5 2.1 1 2.7 1.3 4.1 2.4 8.4 4.7 12.9 6.9l2.5 1.2c5.6 2.7 11.3 5.6 17.2 7.5 4 1.4 13.9 4.5 19.5 4.5 1.8 0 3.1-.3 3.7-1 1.1-1.2 1.3-5.6 1.5-8.8.1-1 .1-1.9.2-2.4.5-3.6 1.2-7.1 2.2-11.1.7-2.8 1.3-5.6 1.9-8.4 1.1-4.9 2.2-10 3.6-14.9 4.5-15.9 9-30.1 18.2-43.5l.2-.3-.4-.1c-.7-.1-2.3-.2-4.2-.3-4.6-.2-13.1-.6-13.9-2.1-.2-.5-.3-.9 0-1.2.3-.5 1.4-1.1 4.8-1.1 2.3 0 4.8.3 6.2.5l.6.1c.6.1 1.4.2 2.4.4 1.8.3 4 .7 5.9.7 1 0 1.8-.1 2.4-.3 1.7-.6 3.6-2.9 5-4.5.2-.3.4-.5.6-.7 4.6-5.1 8.6-8 13.9-9.9 2-.7 4.1-1.1 6.2-1.1 10.1 0 19.5 7.8 24.6 14.5.7.9 1.3 2.1 1.9 3.3 1 1.9 2 3.9 3.3 4.9 1.7 1.2 4.9 1.8 7.5 2.3.6.1 1.1.2 1.6.3.4.1 1 .1 1.6.2 1.8.1 4.1.3 4.5 1.8.2.9-.3 1.3-1.1 1.8-.3.2-.7.4-.8.8-1.6-.4-3.2-.9-4.8-1.3-2.5-.7-5.1-1.5-7.7-1.9l-.5-.1.3.5c3.2 5.5 6.7 10.9 10.1 16.1 6.1 9.4 12.4 19.1 17.2 29.6 9.4 20.7 16.1 37.5 21 53 1.1 3.6 2.2 7.2 3.2 10.8 1.7 6 3.5 12.2 5.7 18.1.1.2.2.5.3.8.5 1.3 1.2 3.1.7 4.1-.2.4-.7.7-1.4.8h-.4c-2.2 0-2.9-3.4-3.4-5.4-.1-.2-.1-.5-.2-.7-3.1-13-7.8-25.7-12.4-37.9-2.2-5.8-4.5-11.9-6.5-17.9-5.1-14.8-12.2-27.9-19.7-41.6l-4.2-7.8c-4.2-7.7-9.5-15-13.6-20.5-3.7-4.9-12.4-5.4-20-6-3-.2-5.8-.4-8.1-.8-3-.6-12.1-2-18.2-2-2.7 0-4.4.3-5.3.8-4.5 2.9-8.3 10-10.7 15.4-6.3 14.3-9.8 30-13.2 45.1l-.6 2.6c-.3 1.4-.6 2.7-1 4-.8 3.2-1.6 6.4-2 9.7-.2 1.4-.3 2.8-.5 4.3-.5 4.1-.9 8.4-1.4 9.5-.9 2.1-2.7 3.1-5.7 3.1-2.7 0-5.8-.8-8.6-1.5-1.4-.3-2.6-.7-3.7-.9-10.7-2-21.1-7.1-30.2-11.6-2.1-1-4.4-2.5-6.9-4.1-5.3-3.4-11.3-7.3-16.2-7.3 1.1-2.4 1.2-11.5 0-15.5-.4-1.3-.9-2.1-1.5-2.2h-.2l-.1.1c-.5.7-1 1.5-1.4 2.1-1.3 2-2.5 3.9-4.6 5.6-1.6 1.3-5.5 4.1-7.1 4.1h-.2c-.9-.2-1.5-1.1-2-1.9-.2-.4-.5-.8-.7-1.1-1.6-1.9-3.7-4.3-5.6-7.1l-.3-.5-.1.6c-1.3 6.5 3 16 6 20.5 4.1 6.2 10.5 11.5 18.9 15.8 13.9 7.1 30.9 13.1 49.2 17.2.7.2 1.4.3 2.1.4 2.1.4 3.9.8 6 1.9 4.1 2.2 4.1 3 4.1 7.4 0 4.5-.4 9.1-.8 13.5-.4 4.2-.8 8.4-.8 12.7v.3c0 1.3 0 4.3-.9 5.2-.8 0-1 .1-1.3.1zm-59.9-55.3c1.8 4.8 4.2 8 6.8 11.7.5.7 1 1.3 1.4 2 2.9 4 5.8 8.7 8.2 12.7l.5.8c1.2 2 1.9 3.2 3.4 3.2.7 0 1.6-.3 2.9-.9 1.2-.6 5.2-2.2 9.8-4 6.4-2.5 14.3-5.6 17.9-7.4l.5-.3-.5-.2c-5.3-2-10.8-3.6-16.2-5.1-4.1-1.2-8.2-2.4-12.3-3.7-7.7-2.6-13.7-5.1-22.1-9.1l-.3.3zM206.8 76.3c-.1 1.7 2.8 3.3 4.9 4.5.5.3 1 .6 1.3.8l.2.1.1-.2c.1-.1.1-.2.1-.5-.3-1.5-6.2-4.9-6.3-5l-.3-.2v.5zm-8.1-1.5h.7c.7.1 1.6.6 2.6 1 1.2.6 2.4 1.2 3.4 1.2.8 0 1.3-.4 1.5-1.2l.1-.2-.2-.1c-3.7-1.6-6.8-2.4-9.6-2.4-2.4 0-4.6.5-6.7 1.6l-.5.2.5.2c.5.2 1.1.4 1.9.4 1 0 2.2-.2 3.3-.4 1-.1 2-.3 3-.3z"/><path d="M112.1 93.3c-.9-.4-.7-2-.5-3.5.2-1.5.3-2.7-.5-3-.6-.2-1.7-.4-2.8-.6-1-.2-2.7-.4-2.9-.7 0 0 .2-.3 2.1-.9 4.5-1.4 4.3-3.5 4.1-5.1-.1-1-.2-1.8.6-2.3.2 0 1 1 1.4 1.6.9 1.2 1.4 1.9 2 1.9h.1c.7 0 1.9-.8 3.1-1.7.8-.6 1.8-1.3 2.2-1.3.4.6-.5 1.7-1.3 2.9-1 1.2-1.9 2.5-1.9 3.8.1 1.5 1.9 2.3 3.3 3 .8.4 1.7.8 1.7 1.1 0 .1-.1.3-.8.3-.5 0-1-.1-1.7-.2-.9-.1-2-.3-3.1-.3h-.7c-1.5.1-2.5 2-3.2 3.4-.4.7-.9 1.6-1.2 1.6z"/><path d="M171.4 147.9c-3.9 0-9-1.3-11.5-4.3-1.8-2.1-1.7-2.8-1.6-3.1.1-.3.5-.3.8-.3 1 0 2.6.5 4 1.4 2.7 1.6 5.3 2.3 7.7 2.3 3 0 5.8-1.2 8.4-3.6 1.4.4 3 1.2 3 2.3 0 1.8-3.9 4-6.7 4.8-1.3.4-2.7.5-4.1.5z"/><path d="M170.9 127c-6.3.4-2.6-12 2.5-11 4.4.8 1.2 10.8-2.5 11z"/><g><path d="M72 79.4c.5 1.6-1.7.9-2.4.6-1.8-.8-3.4-1.4-5.3-1.7.1 1.4 1.4 2.6 1.4 4-.1 1.7-1.4 1.5-2.1.3-.8-1.2-1-2.9-1.5-4.2-.5-1.7-1.8-3.2-2.1-4.9-.5-2.5 4-4.7 6.1-3.7 2.8 1.3 2 5.2-.1 6.7 1.2.4 5.9 1 6 2.9zm-6.2-7c-.4-1.3-1.6-.6-2.4-.1-1.1.6-1.1.6-1 1.7 0 .4.4 1.5.7 1.7.7.5.5.4 1.3-.2.7-.7 1.7-2.2 1.4-3.1z"/><path d="M81.4 74.2c.4 1.5-.8 2.1-1.9 1.2-1.4-1.2.1-1.8-1.9-1.3-.6.1-2.1.8-2.4 1.3-.3.7 1.2 3.5-.6 3.4-1.4-.1-1.8-3.3-2-4.3-.3-1.7-2.3-9.5 1.4-9.5 1.9 0 3.3 3 4.1 4.3 1 1.5 2.9 3.2 3.3 4.9zM77.7 72c-.9-1.5-1.8-4-3.5-4.8-.7 2 .1 4.2.6 6.2 1-.5 2-1 2.9-1.4z"/><path d="M86 60.4c.3.9-.9 1.1-1.4 1.4-1.3.8-1.1 1-.7 2.4.6 1.7 1.2 3.5 1.8 5.2.3.9 1.9 3.7.5 4.1-1.6.4-2.4-3.3-2.7-4.3-.4-1.4-.7-2.7-1.4-3.9-1.7-3.1-1.7 1-3.7.1-1.7-.8 1.5-2.7 2.1-3.2 1.1-.8 4.1-3.4 5.5-1.8z"/><path d="M93.2 67.6c.3 1 .7 2.7-.8 2.5-.8-.1-1.4-2.2-1.7-2.9-.6-1.5-1.1-3-1.7-4.5-.4-1-1.5-2.9-1.3-4 .6-3.2 2.8 2.4 3 3 .8 2.1 1.8 4 2.5 5.9z"/><path d="M102.8 63.5c.8 2.3-1.2 1.9-2.5 1.1-1.8-1.1-3.4-2.7-4.9-4.1.6 1.5 3.3 5.6 2.3 7-1.1 1.6-2.2-1.6-2.4-2.2-.4-1.3-1-2.5-1.5-3.7-.5-1.1-2.8-6.2-.3-5.5.9.2 1.9 1.8 2.5 2.4 1.1 1.1 2.3 2.3 3.8 3-.2-.8-4.6-8.6-1.9-7.9 1.2.3 1.5 2.5 1.9 3.4 1 2.3 2.2 4.3 3 6.5z"/><path d="M111.1 53.8c.9 2.4 1.5 6.4-1 8.1-1.9 1.3-4.1.3-5.4-1.2-1.8-2-2.6-5-1.9-7.6.4-1.5 2-4.2 4-4.1 1.9.2.8 1.1.2 1.6-1.7 1.4-2.5 2.6-2.3 4.9.1 1.8 1.5 6.1 4 5 2-.9 1.3-3.9.4-5.4-.8.4-2.7 2.4-2.9.4-.2-1.8 4.1-4.5 4.9-1.7z"/><path d="M121.4 51.1c1.1 3.3-.9 7.1-4.6 6.8-.6 0-2.6-.4-2.2-1.4.3-.7 1.4-.3 2-.4 2-.2 5-2 3.2-4.4-1.7-2.3-4.3 4.1-7.1.4-2-2.7-.7-6.3 2.4-7.3.5-.2 3.5-.5 3.1.9-.3 1-1.8.6-2.5.9-2 .7-3.2 5.1-.4 4.5 1.5-.3 1.7-2.5 3.6-2.3 1.1 0 2.1 1.2 2.5 2.3z"/><g><path d="M77.6 132.9c.4 1.1-3-.2-2.4-1.7.6-1.5 2.5 1.1 2.4 1.7zm1.8-1.1c.2 1.6-3.2-1-2.4-1.9.8-1.1 2.4 1.1 2.4 1.9z"/><path d="M87.4 129.9c.8 3.9-3.8 8.8-6.2 3.8-.9-1.8-.4-4.6 1-6.1.5-.6 3.3-2.1 3.9-.9.4.8-.6.7-1.1.9-1.7.6-2.8 1.3-2.9 3.3-.3 4.9 5.3 3.7 3.7-.4-.5.3-2.7 2.3-2.6.6 0-1.1 3.8-3.8 4.2-1.2z"/><path d="M94.5 126.4c.4 1.9-.2 5.3-2.3 6.1-2 .7-3.4-1.4-3.7-3.1-.4-1.9.2-5.3 2.3-6.1 1.9-.8 3.4 1.4 3.7 3.1zm-1.6.3c-.7-3.7-3.5-1.3-3.3 1.5.1 1.1.4 3 1.9 2.9 2-.2 1.7-3.3 1.4-4.4z"/><path d="M101.8 122.9c.4 1.9-.2 5.3-2.3 6.1-2 .7-3.4-1.4-3.7-3.1-.4-1.9.2-5.3 2.3-6.1 1.9-.7 3.4 1.4 3.7 3.1zm-1.6.3c-.8-3.7-3.5-1.3-3.3 1.5.1 1.1.4 3 1.9 2.9 2-.2 1.7-3.2 1.4-4.4z"/><path d="M108.5 119c.5 2-.2 4.8-1.8 6.2-2.2 2-3-.4-3.3-2.4-.2-1.2-1-3.8-.4-5 1.4-2.7 5-1.3 5.5 1.2zm-1.4.3c-.2-1.2-1.3-2.2-2.5-1-1 1 0 4.6.7 5.8 1.8-.8 2.1-3.2 1.8-4.8z"/><path d="M120.2 110.3c.1.5-.4.8-.7 1-1.2 1-1.4.3-1.2 2.1.2 1.5 1.1 4 .6 5.5-.6 2.1-1.4.6-1.6-.7-.3-1.9-.3-3.7-1.1-5.4-.4.2-2 1.6-2.2.5-.1-.7.3-.7.7-1.1.7-.5 4.9-3.3 5.5-1.9z"/><path d="M124.2 115.5c.1 1.6-.5 2.4-1.3.8-.8-1.6-1-4.2-1.2-5.9-.1-.7-.3-2.6.9-1.8.5.4.6 2.4.7 3 .3 1.3.7 2.6.9 3.9z"/><path d="M132.7 111.9c0 .8-.2 1.5-1.1 1-.9-.5-.9-3.9-1.5-4.9 0 1 .2 5.4-.8 5.9-1 .6-2.4-3.3-2.8-3.8 0 1.1 1.4 4 1 4.9-.7 1.8-1.8-1.2-1.9-1.8-.3-1.1-1.3-5.2-.1-6.2 1.3-1.1 2.8 3.3 3.2 4.1.3-1.1 0-6.4 1.7-6.2 1.4.2 2.2 6 2.3 7z"/><path d="M140.1 106.8c-.5 1.6-3.6 5.6-5.2 4.2-1.5-1.3-1.7-6.8-.4-8.2.3-.4 4.2-2.8 3.5-.8-.5 1.5-3.5.9-2.8 3.5.6-.3 4.4-3.3 3.4-.8-.4.9-2 1.1-2.6 1.8-.8 1-.6 2.1.1 3.2.8-.6 2.6-3.8 4-2.9z"/><path d="M89.6 151c-.4 2.1-1.8 0-2.1-.7-.5-1.3-.6-2.7-1.2-4-.7 1.7-.2 3.9-.9 5.5-1 2.4-2.3-1.3-3-2.2-.5 1.5.9 2.8.8 4.1-.2 2.7-2.1-.9-2.3-1.9-.3-1.2-1.2-5.6.5-6 1.5-.3 1.3 3 2.6 2.9.3-1.4 1.5-7.7 3.5-4.1.4.7.4 1.5.6 2.4.4 1.4 1.2 2.6 1.5 4z"/><path d="M96.5 147.2c0 .5-.2 1.2-.7 1.3-.8.1-1-1.1-1.1-1.7-.9.5-2 .7-2.4 1.5-.2.4.2 1.9-.4 2-1.7.5-1.2-4.9-1.1-5.8.2-2.2 1.6-5.9 3.5-2.6.5.9.7 1.9 1.1 2.8.3.8 1 1.7 1.1 2.5zm-2.2-1.6c-.4-1-.7-2.9-1.8-3.5-.7 1.4-.5 3-.4 4.5.8-.4 1.5-.7 2.2-1z"/><path d="M103.2 143.9c.5 3.7-4.3-1.7-4.7-2.2.2.9 1.5 4.1.7 5-1.3 1.5-1.7-3.2-1.8-3.7-.2-.7-1.4-4.6.1-4.5 1.3.1 2.5 3.3 3.8 4-.1-.7-2.1-5.5-.7-5.8 1.2-.2 2.5 6.6 2.6 7.2z"/><path d="M110.4 140.6c0 .5-.2 1.2-.7 1.3-.8.1-.9-1.1-1.1-1.7-.9.5-2 .7-2.4 1.5-.2.4.2 1.9-.4 2.1-1.7.5-1.2-4.9-1.1-5.8.2-2.2 1.6-5.9 3.5-2.6.5.9.7 1.9 1.1 2.8.3.7 1 1.6 1.1 2.4zm-2.3-1.6c-.4-1-.7-2.9-1.8-3.5-.7 1.4-.5 3-.4 4.5.8-.4 1.5-.7 2.2-1z"/><path d="M116.3 133.9c.5 2.6-1.8 9.3-5 5.1-1.2-1.5-1.2-4-.5-5.7.3-.7 2.4-3.8 3.6-2.8.6.5 0 .7-.2.9-.5.9-1.7 1.1-2.2 2.3-.3.8-.3 1.6-.3 2.4.4 4.5 4.3 2 3-1.3-4.9 2.8 1.3-4 1.6-.9z"/><path d="M123.9 132.5c-.5 1.6-3.6 5.6-5.2 4.2-1.5-1.3-1.7-6.8-.4-8.2.3-.4 4.2-2.8 3.5-.8-.5 1.5-3.5.9-2.8 3.5.6-.3 4.4-3.3 3.4-.8-.4.9-2 1.1-2.6 1.8-.8 1-.6 2.1.1 3.2.9-.7 2.7-3.8 4-2.9z"/><path d="M132.2 130.2c0 .8-.2 1.5-1.1 1-.9-.5-.9-3.9-1.5-4.9 0 1 .2 5.4-.8 5.9-1 .6-2.4-3.3-2.8-3.8 0 1.1 1.4 4 1 4.9-.7 1.8-1.8-1.2-1.9-1.8-.3-1.1-1.3-5.2-.1-6.2 1.3-1.1 2.8 3.3 3.2 4.1.3-1.1 0-6.4 1.7-6.2 1.3.1 2.2 5.9 2.3 7z"/><path d="M139.5 125.1c-.5 1.6-3.6 5.6-5.2 4.2-1.5-1.3-1.7-6.8-.4-8.2.3-.4 4.2-2.8 3.5-.8-.5 1.5-3.5.9-2.8 3.5.6-.3 4.4-3.3 3.4-.8-.4.9-2 1.1-2.6 1.8-.8 1-.6 2.1.1 3.2.9-.7 2.7-3.8 4-2.9z"/><path d="M146.2 123.4c.5 3.7-4.3-1.7-4.7-2.2.2.9 1.5 4.1.7 5-1.3 1.5-1.7-3.2-1.8-3.7-.2-.7-1.4-4.6.1-4.5 1.3.1 2.5 3.3 3.8 4-.1-.7-2.1-5.5-.7-5.8 1.3-.2 2.5 6.7 2.6 7.2z"/><path d="M152.1 113c.1.9-1.2.7-1.6 1.2-.6.8-.3 1.4-.1 2.5.2 1.2 1 3.5.8 4.7-.4 2.2-1.5.3-1.7-1-.3-1.7-.2-3.3-1-4.9-1.1.6-3.4 1.6-1.6-.3.7-.6 4.4-3.5 5.2-2.2z"/><path d="M154.8 111.5c.1.6 0 4.1-1.2 3.1-1.2-1.1 1.1-4.5 1.2-3.1zm2.1-.3c.1.6-.2 4.2-1.3 3.1-.8-.7.9-4.8 1.3-3.1z"/></g><g><path d="M83.6 101.1c.2.8.6 6.4.1 7-2.2 2.4-2.2-3.3-2.8-4.4-1.8.5-4.4 2.4-6.1.9-1.1-1-.3-6.3.4-7.3 3.1-4.4 1.6 2.8 1.6 5 .6-.2 2.8-.6 3.2-1.2 1-1.5-2.5-5.5-.9-7.1 1.6-1.5 1.7.8 2.2 1.7.5.9 2.2 4.9 2.3 5.4z"/><path d="M89.3 103.9c.6 2.5-2.6 3.7-2.6 1-.1-1.3 2.1-2.9 2.6-1z"/><path d="M96.8 87.2c.2 3.7-.8 7.3-.9 11 0 1.1.5 3.6-.3 4.3-2.9 2.6-1.2-12.3-1.2-13.7-1 .5-5.1 4.2-5.5 3.9-2.7-2.1 6.5-9.1 7.9-5.5z"/></g><g><path d="M52.7 75.5c-.8 1.6-1.8 3.8-3.3 5.6-.7.9-1.4 1.8-2.4 2.5-.9.7-1.8 1.1-2.6 1.4-.4.1-.8.1-1.2.1-.3 0-.6 0-1-.1-.1-.1-.2 0-.3-.1-.1-.1-.1-.1-.2 0-.1-.1-.2 0-.2 0l.1.1c.1.1.1.1.2.1.1.1.2 0 .3.1.2 0 .6.2.9.3.3 0 .8.1 1.3.1.9-.1 2-.5 3-1.1 1-.6 2-1.4 2.8-2.4 1.7-1.7 3-3.7 4-5.2.1-.1.1-.1.1-.2.1-.1.1-.1.1-.2l-.9-3c-.1.1 0 .2-.1.3.1.1-.2.8-.6 1.7"/><path d="M54.4 79.8c-.8 1.6-1.8 3.8-3.3 5.6-.8.9-1.5 1.8-2.4 2.5-.9.7-1.8 1.1-2.6 1.4-.4.1-.8.1-1.2.1-.3 0-.6 0-1-.1-.1-.1-.2 0-.3-.1-.1-.1-.1-.1-.2 0-.1-.1-.2 0-.2 0l.1.1c.1.1.1.1.2.1.1.1.2 0 .3.1.2 0 .6.2.9.3.3 0 .8.1 1.3.1.9-.1 2-.5 3-1.1 1-.6 2-1.4 2.8-2.4 1.7-1.7 3-3.7 4-5.3l-.8-2.9c-.1.3-.3 1-.6 1.6"/><path d="M55.7 84.3c-.8 1.6-1.8 3.8-3.3 5.6-.8.9-1.5 1.8-2.4 2.5-.9.7-1.8 1.1-2.6 1.4-.4.1-.8.1-1.2.1-.3 0-.6 0-1-.1-.1-.1-.2 0-.3-.1-.1-.1-.1-.1-.2 0-.1-.1-.2 0-.2 0s.1.1.2 0c.1.1.1.1.2.1.1.1.2 0 .3.1.2 0 .6.2.9.3.3 0 .8.1 1.3.1.9-.1 2-.5 3-1.1 1-.6 2-1.4 2.8-2.4 1.6-1.7 2.9-3.5 3.9-5.2l-.8-2.9c0 .5-.3 1-.6 1.6"/></g></g></svg>