<svg xmlns="http://www.w3.org/2000/svg" id="Layer_1" viewBox="0 0 540 440"><style id="style2">.st0{fill:#ECB32D;} .st1{fill:#63C1A0;} .st2{fill:#E01A59;} .st3{fill:#331433;} .st4{fill:#D62027;} .st5{fill:#89D3DF;} .st6{fill:#258B74;} .st7{fill:#819C3C;}</style><g id="g22"><g id="g20"><path id="path4" fill="#ecb32d" d="M406.3 87.1c-1.9-5.7-8-8.8-13.7-7-5.7 1.9-8.8 8-7 13.7l28.1 86.4c1.9 5.3 7.7 8.3 13.2 6.7 5.8-1.7 9.3-7.8 7.4-13.4 0-.2-28-86.4-28-86.4z" class="st0"/><path id="path6" fill="#63c1a0" d="M362.8 101.2c-1.9-5.7-8-8.8-13.7-7-5.7 1.9-8.8 8-7 13.7l28.1 86.4c1.9 5.3 7.7 8.3 13.2 6.7 5.8-1.7 9.3-7.8 7.4-13.4 0-.2-28-86.4-28-86.4z" class="st1"/><path id="path8" fill="#e01a59" d="M441.7 158.6c5.7-1.9 8.8-8 7-13.7-1.9-5.7-8-8.8-13.7-7l-86.5 28.2c-5.3 1.9-8.3 7.7-6.7 13.2 1.7 5.8 7.8 9.3 13.4 7.4.2 0 86.5-28.1 86.5-28.1z" class="st2"/><path id="path10" fill="#331433" d="M366.5 183.1c5.6-1.8 12.9-4.2 20.7-6.7-1.8-5.6-4.2-12.9-6.7-20.7l-20.7 6.7z" class="st3"/><path id="path12" fill="#d62027" d="M410.1 168.9c7.8-2.5 15.1-4.9 20.7-6.7-1.8-5.6-4.2-12.9-6.7-20.7l-20.7 6.7z" class="st4"/><path id="path14" fill="#89d3df" d="M427.5 115.1c5.7-1.9 8.8-8 7-13.7-1.9-5.7-8-8.8-13.7-7l-86.4 28.1c-5.3 1.9-8.3 7.7-6.7 13.2 1.7 5.8 7.8 9.3 13.4 7.4.2 0 86.4-28 86.4-28z" class="st5"/><path id="path16" fill="#258b74" d="M352.4 139.5c5.6-1.8 12.9-4.2 20.7-6.7-2.5-7.8-4.9-15.1-6.7-20.7l-20.7 6.7z" class="st6"/><path id="path18" fill="#819c3c" d="M395.9 125.4c7.8-2.5 15.1-4.9 20.7-6.7-2.5-7.8-4.9-15.1-6.7-20.7l-20.7 6.7z" class="st7"/></g></g><g id="g8" fill="#a25cc6" fill-rule="evenodd"><path id="path2" d="M182.436 75.78c-2.096 2.704-5.142 6.518-8.95 10.977-7.652 8.865-18.485 20.3-30.9 29.585-6.19 4.618-12.8 8.694-19.424 11.423-6.61 2.748-13.275 4.04-18.99 3.71-2.857-.146-5.47-.676-7.707-1.376-2.242-.72-4.142-1.536-5.64-2.396-.787-.37-1.415-.81-1.98-1.175-.586-.336-1.05-.672-1.433-.958-.76-.53-1.157-.81-1.157-.81s.34.335 1.06.962c.335.323.767.713 1.285 1.134.56.402 1.14.926 1.883 1.43 1.4 1.05 3.26 2.14 5.5 3.157 2.237 1.036 4.9 1.925 7.933 2.455 6.014 1.097 13.343.58 20.727-1.462 7.408-2.06 14.896-5.483 21.975-9.565 14.17-8.14 26.825-18.63 35.818-26.892.457-.4.907-.81 1.31-1.193V74.08c-.397.486-.793 1.077-1.316 1.71"/><path id="path4-3" d="M175.728 117.488c-7.628 8.888-18.49 20.324-30.907 29.633-6.2 4.63-12.8 8.664-19.428 11.388-6.604 2.754-13.27 4.082-18.978 3.716-2.857-.146-5.477-.627-7.713-1.346-2.235-.75-4.14-1.572-5.665-2.42-.76-.39-1.383-.815-1.955-1.18-.585-.342-1.042-.69-1.426-.933l-1.164-.84s.354.322 1.073.95c.33.33.76.72 1.28 1.127.56.432 1.145.956 1.857 1.43 1.432 1.055 3.284 2.14 5.52 3.157 2.236 1.047 4.904 1.906 7.932 2.46 6.02 1.11 13.35.58 20.727-1.474 7.4-2.06 14.895-5.477 21.962-9.56 13.738-7.827 25.93-17.91 34.903-26.038V107.74c-2.016 2.546-4.733 5.915-8.017 9.735"/><path id="path6-8" d="M176.678 148.23c-7.713 8.864-18.54 20.33-30.968 29.61-6.22 4.617-12.806 8.67-19.453 11.422-6.58 2.742-13.238 4.04-18.953 3.723-2.85-.19-5.47-.676-7.707-1.383-2.236-.756-4.15-1.566-5.66-2.425-.76-.396-1.395-.822-1.974-1.164-.597-.323-1.036-.694-1.42-.944-.755-.56-1.18-.854-1.18-.854s.376.34 1.077.993c.353.298.768.712 1.31 1.102.524.426 1.133.944 1.858 1.42 1.426 1.047 3.284 2.138 5.508 3.186 2.248 1.048 4.91 1.92 7.908 2.443 6.043 1.097 13.366.574 20.75-1.48 7.384-2.04 14.884-5.47 21.945-9.522 13.262-7.616 25.094-17.278 34.02-25.247v-19.544c-1.895 2.42-4.284 5.374-7.062 8.658"/></g><path id="path4554" fill-opacity="0" fill-rule="evenodd" stroke="#a25cc6" stroke-width="4" d="M60 270c80 140 340 140 420 3.008"/></svg>