<svg xmlns="http://www.w3.org/2000/svg" viewBox="0 0 28 26"><path id="top-box" class="c1" d="M11.5 8c-.828 0-1.5-.672-1.5-1.5v-5c0-.828.672-1.5 1.5-1.5h5c.828 0 1.5.672 1.5 1.5v5c0 .828-.672 1.5-1.5 1.5"/><path class="c2" d="M16.5 18c.828 0 1.5.672 1.5 1.5v5c0 .828-.672 1.5-1.5 1.5h-5c-.828 0-1.5-.672-1.5-1.5v-5c0-.828.672-1.5 1.5-1.5"/><path id="connector" class="c3" d="M23 17v-3h-8v3h-2v-3H5v3H3v-3c0-1.094.906-2 2-2h8V9h2v3h8c1.094 0 2 .906 2 2v3z"/><path class="c2" d="M21.5 26c-.828 0-1.5-.672-1.5-1.5v-5c0-.828.672-1.5 1.5-1.5h5c.828 0 1.5.672 1.5 1.5v5c0 .828-.672 1.5-1.5 1.5"/><path class="c2" d="M1.5 26C.672 26 0 25.328 0 24.5v-5c0-.828.672-1.5 1.5-1.5h5c.828 0 1.5.672 1.5 1.5v5c0 .828-.672 1.5-1.5 1.5"/></svg>