<svg xmlns="http://www.w3.org/2000/svg" height="26" width="32" viewBox="0 0 32 26"><path d="M10.06 26C6.352 26 2.902 24.913 0 23.05c.514.062 1.036.093 1.566.093 3.076 0 5.907-1.05 8.154-2.81-2.873-.053-5.297-1.95-6.133-4.558.4.077.812.118 1.235.118.6 0 1.18-.08 1.73-.23-3-.603-5.266-3.256-5.266-6.436v-.083c.885.492 1.897.787 2.974.82C2.498 8.79 1.34 6.78 1.34 4.503c0-1.203.323-2.33.888-3.3 3.238 3.97 8.08 6.584 13.532 6.858-.112-.48-.17-.98-.17-1.496C15.59 2.94 18.53 0 22.155 0c1.888 0 3.594.797 4.792 2.073 1.495-.294 2.9-.84 4.17-1.593-.49 1.533-1.532 2.82-2.888 3.63 1.327-.158 2.592-.51 3.77-1.033-.88 1.316-1.993 2.472-3.276 3.398.013.28.02.565.02.85 0 8.673-6.604 18.674-18.68 18.674" fill-rule="evenodd"/></svg>