<svg viewBox="0 0 113 12" xmlns="http://www.w3.org/2000/svg"><g fill="#d1d3d4" fill-rule="evenodd"><path d="m3.06 5.23h6.364v1.54h-6.364v-1.54"/><path d="m-.05.468c-.038.095-.057.193-.057.302v8.372c0 .533.092.982.273 1.337.186.362.418.659.69.881.276.226.578.39.899.487.333.102.642.153.916.153h7.771v-1.521h-7.754c-.407 0-.731-.121-.963-.359-.232-.237-.349-.566-.349-.978v-7.62h9.07v-1.521h-9.798c-.111 0-.21.019-.303.059-.091.039-.166.091-.231.159-.068.072-.12.153-.159.25"/><path d="m35.08 11.235c.215-.169.406-.378.568-.622.164-.246.298-.537.399-.864.1-.325.151-.701.151-1.116 0-.415-.05-.789-.148-1.113-.098-.322-.231-.61-.397-.855-.165-.246-.358-.459-.571-.634-.219-.179-.452-.329-.693-.446-.243-.117-.489-.205-.732-.261-.246-.056-.481-.088-.699-.093h-5.21c-.538 0-.971-.172-1.287-.512-.311-.334-.469-.783-.469-1.334 0-.542.156-.99.465-1.333.316-.352.751-.53 1.291-.53h7.31v-1.521h-7.31c-.325 0-.684.062-1.068.183-.374.118-.726.313-1.049.581-.319.264-.589.614-.804 1.041-.211.42-.318.951-.318 1.58 0 .63.107 1.162.318 1.585.214.429.484.779.802 1.039.322.265.675.459 1.051.578.385.121.744.183 1.068.183h5.203c.258 0 .499.046.716.136.223.093.416.228.573.402.154.169.273.371.355.598.079.222.12.467.12.727 0 .544-.157.99-.467 1.328-.316.343-.752.518-1.297.518h-8.337v1.521h8.337c.216 0 .451-.027.698-.08.246-.053.492-.137.732-.25.239-.111.474-.258.699-.435"/><path d="m60.705 7.978c.252-.2.478-.445.672-.73.194-.282.35-.617.465-.993.115-.376.174-.813.174-1.299v-1.054c0-.257-.03-.538-.088-.836-.057-.292-.152-.587-.281-.876-.13-.29-.296-.572-.495-.838-.192-.258-.43-.489-.706-.687-.277-.199-.603-.362-.97-.482-.366-.121-.788-.182-1.255-.182h-5.116c-.273 0-.58.053-.913.156-.323.102-.627.266-.903.49-.272.22-.503.516-.688.88-.181.357-.273.805-.273 1.333v9.142h1.483v-9.142c0-.411.117-.741.348-.978.232-.238.556-.358.963-.358h5.098c.347 0 .661.06.934.179.274.119.513.287.709.499.194.21.348.464.459.755.105.276.174.581.207.908l.002.04v1.054c0 .348-.056.666-.167.948-.113.287-.275.536-.482.74-.204.201-.449.363-.729.48-.27.113-.574.184-.903.211l-.031.001h-4.727v1.522h4.727c.252 0 .525-.031.814-.091.287-.059.575-.155.858-.285.28-.129.554-.299.812-.505"/><path d="m79.27 5.23h6.364v1.54h-6.364v-1.54"/><path d="m76.16.467c-.039.095-.057.194-.057.303v8.372c0 .533.092.982.273 1.337.186.362.418.659.69.881.276.226.578.39.899.487.333.102.642.153.916.153h7.771v-1.521h-7.754c-.407 0-.731-.121-.963-.359-.231-.236-.349-.566-.349-.978v-7.62h9.07v-1.521h-9.798c-.111 0-.21.019-.303.059-.091.039-.166.091-.231.159-.068.072-.12.153-.159.25"/><path d="m110.47 12h2.306l-4.725-4.186h1.047c.251 0 .525-.03.815-.09.285-.058.573-.156.854-.288.282-.133.557-.305.815-.511.252-.201.478-.446.673-.73.193-.283.35-.618.465-.993.115-.376.174-.813.174-1.3v-1.481c0-.246-.043-.516-.127-.804-.081-.277-.216-.54-.402-.783-.182-.236-.426-.438-.724-.598-.29-.156-.659-.235-1.098-.235h-8.587c-.111 0-.21.019-.303.059-.09.039-.167.091-.231.159-.068.072-.12.153-.159.249-.039.095-.057.194-.057.303v11.23h1.483v-10.479h7.854c.059 0 .123.004.192.011.117.013.227.053.327.12.111.073.199.179.262.314.058.125.086.279.086.472v1.463c0 .354-.056.677-.168.958-.113.287-.277.537-.488.742-.206.201-.452.362-.73.478-.272.114-.572.184-.894.211l-.032.001h-4.726v1.522h1.382l4.716 4.186"/></g></svg>